<?xml version="1.0" standalone="no"?>
<!DOCTYPE svg PUBLIC "-//W3C//DTD SVG 20010904//EN"
 "http://www.w3.org/TR/2001/REC-SVG-20010904/DTD/svg10.dtd">
<svg version="1.0" xmlns="http://www.w3.org/2000/svg"
 width="300.000000pt" height="300.000000pt" viewBox="0 0 300.000000 300.000000"
 preserveAspectRatio="xMidYMid meet">
<metadata>
Created by potrace 1.11, written by Peter Selinger 2001-2013
</metadata>
<g transform="translate(0.000000,300.000000) scale(0.100000,-0.100000)"
fill="#000000" stroke="none">
<path d="M1388 2315 c-2 -1 -43 -5 -93 -9 -323 -22 -666 -124 -880 -261 -65
-42 -191 -142 -215 -172 -114 -140 -157 -235 -164 -359 -16 -291 247 -571 684
-728 220 -80 439 -116 725 -121 187 -3 260 0 400 20 377 51 724 203 919 400
78 80 125 150 158 241 30 79 32 234 4 313 -120 345 -592 606 -1206 666 -65 7
-327 14 -332 10z m372 -70 c298 -41 544 -114 725 -215 140 -78 281 -205 338
-303 85 -144 91 -299 20 -442 -142 -283 -559 -495 -1094 -555 -90 -10 -408
-14 -459 -6 -14 2 -56 7 -95 11 -118 11 -305 52 -429 95 -219 76 -375 167
-502 294 -271 270 -221 590 131 838 212 150 549 261 863 284 48 4 89 8 91 10
5 5 362 -4 411 -11z"/>
<path d="M738 1900 c-24 -25 -111 -145 -193 -265 -189 -275 -185 -269 -185
-300 0 -33 27 -44 45 -19 45 63 41 61 59 26 9 -18 35 -44 58 -59 55 -37 137
-37 200 0 179 105 350 430 308 585 -21 79 -69 88 -163 31 -56 -34 -57 -34 -57
-11 0 10 -6 27 -14 38 -14 18 -16 17 -58 -26z m262 -49 c0 -28 -42 -143 -73
-201 -97 -179 -238 -320 -335 -336 -46 -7 -106 17 -123 48 -13 25 -11 28 179
261 97 119 160 187 197 213 81 55 155 62 155 15z"/>
<path d="M1597 1916 c-114 -41 -244 -184 -310 -339 -25 -60 -77 -126 -100
-127 -4 0 -20 -9 -36 -21 -28 -21 -99 -42 -113 -33 -14 9 9 47 31 51 29 4 134
58 149 75 46 56 -6 152 -76 140 -31 -5 -107 -86 -133 -141 -27 -58 -21 -136
12 -163 37 -31 81 -15 185 69 49 40 54 40 54 8 0 -33 25 -82 48 -94 11 -6 30
-7 43 -4 26 7 104 56 129 82 9 9 27 26 40 38 l25 22 -3 -42 c-5 -57 22 -93 58
-79 14 5 41 26 60 46 19 20 44 42 55 50 19 13 20 11 17 -30 -3 -35 1 -47 21
-68 17 -17 32 -24 44 -19 15 5 138 89 223 151 15 11 17 10 13 -12 -3 -14 -30
-47 -60 -75 -49 -45 -53 -52 -43 -71 l12 -22 26 24 c14 12 37 33 50 46 23 22
42 22 42 -2 0 -20 39 -56 60 -56 11 0 55 31 99 69 l79 70 5 -42 c7 -53 39 -81
80 -73 51 10 251 166 230 179 -5 4 -34 -12 -64 -34 -73 -55 -128 -85 -166 -92
-62 -12 -53 37 10 54 66 18 143 72 150 106 11 61 -44 122 -95 104 -27 -9 -89
-71 -119 -119 -31 -50 -165 -162 -193 -162 -17 0 -18 5 -12 53 6 46 14 59 63
108 34 35 54 63 51 74 -2 15 -11 11 -48 -23 l-45 -41 -7 41 c-9 49 -23 68 -53
68 -25 0 -42 -32 -48 -90 -3 -31 -13 -43 -93 -102 -82 -63 -148 -97 -160 -85
-9 8 15 47 75 121 43 53 55 75 54 101 -2 74 -35 74 -99 -2 -91 -109 -204 -206
-220 -190 -3 3 14 33 38 67 73 106 78 114 72 135 -18 59 -40 53 -99 -29 -24
-33 -52 -68 -62 -76 -110 -91 -168 -126 -208 -125 -34 1 -24 62 26 149 23 42
48 76 54 76 34 0 141 68 199 126 69 71 92 110 82 147 -4 18 -45 50 -59 47 -1
-1 -19 -7 -40 -14z m69 -83 c-27 -53 -130 -140 -192 -163 l-25 -10 20 27 c43
61 175 173 203 173 5 0 2 -12 -6 -27z m-466 -273 c0 -9 -76 -60 -90 -60 -5 0
-10 -4 -10 -8 0 -5 -7 -9 -15 -9 -12 0 -12 3 -2 15 34 42 117 85 117 62z
m1310 1 c0 -12 -112 -83 -119 -75 -11 11 86 84 112 84 4 0 7 -4 7 -9z"/>
<path d="M713 1171 c0 -11 5 -17 9 -15 4 3 10 -7 14 -21 3 -14 10 -25 14 -25
5 0 1 18 -8 40 -18 43 -32 52 -29 21z"/>
<path d="M778 1172 c-4 -12 -2 -20 3 -16 5 3 10 -10 10 -28 2 -27 3 -28 6 -8
2 14 0 37 -5 50 -9 23 -9 23 -14 2z"/>
<path d="M900 1147 c0 -26 4 -47 8 -47 9 0 6 80 -3 88 -3 3 -5 -16 -5 -41z"/>
<path d="M935 1165 c0 -13 3 -21 8 -18 4 2 7 10 7 18 0 8 -3 16 -7 18 -5 3 -8
-5 -8 -18z"/>
<path d="M1048 1145 c-2 -25 0 -45 4 -45 5 0 8 20 8 45 0 25 -2 45 -4 45 -2 0
-6 -20 -8 -45z"/>
<path d="M1086 1176 c4 -11 2 -21 -7 -27 -10 -6 -11 -9 -1 -9 18 0 27 29 13
43 -9 9 -11 8 -5 -7z"/>
<path d="M1368 1184 c-7 -7 13 -74 23 -74 4 0 10 7 13 16 3 8 2 12 -4 9 -11
-7 -31 35 -23 48 5 8 -1 10 -9 1z"/>
<path d="M1416 1173 c-6 -14 -5 -15 5 -6 7 7 10 15 7 18 -3 3 -9 -2 -12 -12z"/>
<path d="M1531 1174 c0 -11 3 -14 6 -6 3 7 2 16 -1 19 -3 4 -6 -2 -5 -13z"/>
<path d="M1680 1186 c0 -2 9 -23 20 -47 22 -50 27 -36 6 16 -13 30 -26 46 -26
31z"/>
<path d="M1748 1180 c-6 -19 3 -80 12 -80 5 0 6 19 3 43 -6 47 -9 54 -15 37z"/>
<path d="M1870 1142 l5 -47 3 39 c2 21 0 42 -5 47 -4 4 -6 -13 -3 -39z"/>
<path d="M2020 1185 c0 -5 14 -26 32 -45 17 -19 29 -28 25 -19 -3 9 -1 21 5
27 6 6 6 12 -3 17 -7 5 -10 4 -5 -3 15 -25 -14 -20 -33 5 -11 16 -20 24 -21
18z"/>
<path d="M1197 1173 c-12 -11 -8 -38 9 -59 14 -18 15 -18 4 5 -7 12 -10 32 -7
42 5 20 4 23 -6 12z"/>
<path d="M1255 1146 c0 -19 3 -32 8 -29 4 2 7 17 7 34 0 16 -3 29 -7 29 -5 0
-8 -15 -8 -34z"/>
<path d="M594 1135 c0 -19 3 -35 6 -35 4 0 7 16 7 35 0 19 -3 35 -7 35 -3 0
-6 -16 -6 -35z"/>
<path d="M2208 1135 c2 -19 7 -35 11 -35 4 0 5 16 3 35 -2 19 -7 35 -11 35 -4
0 -5 -16 -3 -35z"/>
<path d="M2340 1164 c0 -4 11 -17 25 -30 16 -15 25 -18 25 -10 0 8 -11 21 -25
30 -14 9 -25 13 -25 10z"/>
<path d="M1528 1125 c2 -14 6 -25 7 -25 1 0 5 11 7 25 3 16 1 25 -7 25 -8 0
-10 -9 -7 -25z"/>
<path d="M1080 1126 c0 -2 7 -9 15 -16 13 -11 14 -10 9 4 -5 14 -24 23 -24 12z"/>
<path d="M2347 1109 c7 -7 15 -10 18 -7 3 3 -2 9 -12 12 -14 6 -15 5 -6 -5z"/>
</g>
</svg>
