<svg id="Layer_1" enable-background="new 0 0 256 256" height="512" viewBox="0 0 256 256" width="512" xmlns="http://www.w3.org/2000/svg"><g><path d="m245.15 156.3c4.33-17.9 4.6-37.61 0-56.6h-18.09c-2.18-7.64-5.22-14.91-9.01-21.72l12.81-12.8c-9.97-16.3-23.74-30.07-40.04-40.04l-12.8 12.81c-6.81-3.79-14.08-6.83-21.72-9.01v-18.09c-17.98-4.35-37.69-4.58-56.6 0v18.09c-7.64 2.18-14.91 5.22-21.72 9.01l-12.8-12.81c-16.3 9.97-30.07 23.74-40.04 40.04l12.81 12.8c-3.79 6.81-6.83 14.08-9.01 21.72h-18.09c-4.37 18.05-4.56 37.76 0 56.6h18.09c2.18 7.64 5.22 14.91 9.01 21.72l-12.81 12.8c9.97 16.3 23.74 30.07 40.04 40.04l12.8-12.81c6.81 3.79 14.08 6.83 21.72 9.01v18.09c17.913 4.343 37.673 4.585 56.6 0v-18.09c7.64-2.18 14.91-5.22 21.72-9.01l12.8 12.81c16.3-9.97 30.07-23.74 40.04-40.04l-12.81-12.8c3.79-6.81 6.83-14.08 9.01-21.72zm-117.15 50.24c-43.704-.043-78.51-35.434-78.51-78.55 0-43.37 35.13-78.5 78.5-78.5 43.38 0 78.55 35.13 78.55 78.5 0 43.647-35.487 78.593-78.54 78.55z" fill="#72c1e8"/><path d="m128.021 223.192c-20.03 0-39.179-6.135-55.376-17.741-1.123-.804-1.38-2.366-.576-3.488.805-1.122 2.368-1.379 3.488-.576 15.344 10.994 33.485 16.805 52.464 16.805 49.813 0 90.189-40.287 90.189-90.152 0-24.097-9.39-46.757-26.439-63.807-.977-.976-.977-2.559 0-3.535.976-.977 2.56-.977 3.535 0 17.994 17.994 27.904 41.91 27.904 67.342 0 52.573-42.56 95.152-95.189 95.152zm-63.385-24.159c-1.34-1.197-2.666-2.451-3.94-3.726-.976-.977-.976-2.56 0-3.536s2.559-.976 3.536 0c1.208 1.209 2.465 2.397 3.735 3.532 1.03.92 1.119 2.5.199 3.53-.919 1.03-2.499 1.121-3.53.2z" fill="#c5e5ff"/><path d="m147.628 141.276-5.283 5.283c-1.332 1.332-3.492 1.332-4.824 0-2.893-2.893-24.898-24.898-28.081-28.081-1.332-1.332-1.332-3.492 0-4.824l5.283-5.283-25.355-25.355-10.797 10.797c-4.24 4.24-4.771 10.946-1.216 15.774 18.834 25.572 41.944 49.087 69.075 69.066 4.819 3.555 11.52 3.01 15.75-1.22l10.802-10.802z" fill="#fc5d3d"/><path d="m150.418 173.25c-20.58-15.155-39.307-32.77-55.66-52.356-.885-1.06-.743-2.637.316-3.521 1.061-.886 2.636-.743 3.521.316 16.097 19.279 34.53 36.618 54.787 51.535 1.112.819 1.349 2.384.531 3.496-.82 1.113-2.385 1.348-3.495.53zm-61.997-60.193c-1.908-2.438-3.812-4.945-5.659-7.452-.819-1.112-.582-2.677.53-3.496s2.677-.581 3.496.53c1.818 2.468 3.692 4.936 5.571 7.335.851 1.087.66 2.659-.428 3.51-1.085.85-2.657.662-3.51-.427z" fill="#ffcbc2"/><path d="m179.998 154.791-20.531-20.531c-1.332-1.332-3.492-1.332-4.824 0l-7.016 7.016 25.355 25.355 7.016-7.016c1.332-1.332 1.332-3.492 0-4.824z" fill="#afafaf"/><path d="m121.736 96.53-20.531-20.531c-1.332-1.332-3.492-1.332-4.824 0l-7.016 7.016 25.355 25.354 7.016-7.016c1.332-1.332 1.332-3.491 0-4.823z" fill="#afafaf"/><path d="m44.06 45.05c.97-.98.96-2.57-.02-3.54-.95-.94-2.59-.93-3.53.02-.97.98-.96 2.57.02 3.54 1.001.979 2.58.95 3.53-.02z"/><path d="m206.25 135.31c-1.37-.17-2.63.82-2.8 2.17-.17 1.37.81 2.62 2.18 2.79.1.02.21.02.31.02 1.26 0 2.32-.94 2.48-2.19.17-1.37-.81-2.62-2.17-2.79z"/><path d="m127.99 46.99c-44.689 0-81 36.165-81 81 0 44.584 35.993 81.008 81.01 81.05 37.787 0 69.49-25.863 78.5-60.81.34-1.34-.47-2.7-1.8-3.05-1.32-.34-2.71.49-3.05 1.8-8.517 33.199-38.42 57.06-73.66 57.06-41.91-.05-76-34.16-76-76.05 0-42.089 34.057-76 76-76 41.85 0 75.96 34.02 76.05 75.84 0 1.37 1.12 2.49 2.5 2.49s2.5-1.13 2.5-2.51c-.082-44.795-36.475-80.82-81.05-80.82z"/><path d="m247.58 99.11c-.27-1.12-1.27-1.91-2.43-1.91h-16.22c-1.97-6.46-4.59-12.78-7.79-18.77l11.49-11.48c.82-.82.97-2.08.36-3.07-10.14-16.59-24.28-30.72-40.86-40.87-.97-.59-2.28-.43-3.08.36l-11.48 11.49c-5.99-3.2-12.3-5.82-18.77-7.79v-16.22c0-1.16-.79-2.16-1.91-2.43-18.75-4.54-39.05-4.54-57.78 0-1.12.27-1.91 1.27-1.91 2.43v16.22c-6.47 1.97-12.78 4.59-18.77 7.79l-11.48-11.49c-.8-.79-2.11-.95-3.08-.36-5.57 3.41-10.92 7.3-15.9 11.57-1.048.901-1.155 2.489-.27 3.52.86 1.01 2.52 1.14 3.53.27 4.27-3.66 8.85-7.05 13.59-10.06l11.39 11.41c.77.77 2.03.95 2.99.41 6.71-3.73 13.84-6.69 21.19-8.79 1.06-.3 1.81-1.29 1.81-2.4v-16.11c16.78-3.76 34.79-3.76 51.6 0v16.11c0 1.11.74 2.1 1.81 2.41 7.35 2.09 14.48 5.05 21.19 8.78.96.54 2.21.36 2.99-.41l11.39-11.41c14.61 9.28 27.23 21.9 36.51 36.51l-11.41 11.39c-.78.79-.95 2.01-.41 2.99 3.73 6.71 6.69 13.84 8.79 21.19.3 1.07 1.29 1.81 2.4 1.81h16.11c3.774 16.844 3.773 34.654 0 51.6h-16.11c-1.11 0-2.1.75-2.4 1.81-2.1 7.35-5.06 14.48-8.79 21.19-.54.98-.37 2.2.41 2.99l11.41 11.4c-9.28 14.6-21.9 27.23-36.51 36.5l-11.39-11.41c-.77-.77-2.03-.95-2.99-.41-6.71 3.73-13.84 6.69-21.19 8.79-1.07.3-1.81 1.29-1.81 2.4v16.11c-16.8 3.76-34.85 3.75-51.6 0v-16.11c0-1.11-.75-2.1-1.81-2.4-7.35-2.1-14.48-5.06-21.19-8.79-.96-.54-2.22-.36-2.99.41l-11.39 11.41c-14.61-9.27-27.23-21.9-36.51-36.5l11.41-11.4c.78-.79.95-2.01.41-2.99-3.73-6.71-6.69-13.84-8.79-21.19-.3-1.06-1.29-1.81-2.4-1.81h-16.11c-3.654-16.31-3.89-34.22 0-51.6h16.11c1.11 0 2.1-.74 2.4-1.81 2.1-7.35 5.06-14.48 8.79-21.19.54-.98.37-2.2-.41-2.99l-11.41-11.39c2.77-4.36 5.85-8.57 9.16-12.53.89-1.06.75-2.64-.31-3.52-1.02-.86-2.67-.71-3.52.31-3.89 4.64-7.47 9.62-10.63 14.8-.61.99-.46 2.25.36 3.07l11.49 11.48c-3.2 5.99-5.82 12.31-7.79 18.77h-16.22c-1.16 0-2.16.79-2.43 1.91-4.523 18.669-4.598 38.779 0 57.78.27 1.12 1.27 1.91 2.43 1.91h16.22c1.97 6.47 4.59 12.78 7.79 18.77l-11.49 11.48c-.82.82-.97 2.09-.36 3.08 10.15 16.59 24.28 30.72 40.86 40.86.97.59 2.28.43 3.08-.36l11.48-11.49c5.99 3.2 12.3 5.82 18.77 7.79v16.22c0 1.16.79 2.16 1.91 2.43 18.54 4.495 38.683 4.626 57.78 0 1.12-.27 1.91-1.27 1.91-2.43v-16.22c6.46-1.97 12.78-4.59 18.77-7.79l11.48 11.49c.8.8 2.11.95 3.08.36 16.58-10.14 30.71-24.27 40.86-40.86.61-1 .46-2.26-.36-3.08l-11.49-11.48c3.2-5.99 5.82-12.31 7.79-18.77h16.22c1.16 0 2.16-.79 2.43-1.91 4.509-18.635 4.612-38.742 0-57.78z"/><path d="m112.73 150.13c-.96.99-.92 2.58.08 3.53.962.942 2.585.925 3.53-.08.948-.99.928-2.564-.08-3.53-.96-.93-2.61-.89-3.53.08z"/><path d="m147.91 176.64c-8.41-6.2-16.61-12.87-24.37-19.85-.99-.89-2.65-.8-3.53.19-.96 1.068-.808 2.632.19 3.53 7.87 7.08 16.2 13.86 24.75 20.16 5.714 4.211 13.779 3.733 19-1.47 13-12.999 8.3-8.3 17.82-17.82 2.324-2.325 2.281-6.079 0-8.36l-20.54-20.53c-2.291-2.312-6.07-2.301-8.35 0-11.044 11.044-5.397 5.397-12.3 12.3-.369.369-.954.354-1.29 0-2.9-2.89-24.9-24.9-28.08-28.08-.356-.336-.368-.923 0-1.29 6.836-6.837 4.059-4.059 12.29-12.29 0 0 0-.01.01-.01 2.263-2.262 2.331-6.019-.01-8.36l-20.53-20.53c-2.346-2.346-6.093-2.267-8.36 0-8.653 8.665-4.804 4.814-17.81 17.82-5.219 5.219-5.668 13.296-1.46 19.02 9.2 12.5 19.4 24.45 30.29 35.52.94.95 2.58.96 3.54.03.98-.97.99-2.56.03-3.54-10.73-10.9-20.77-22.67-29.83-34.98-2.796-3.782-2.448-9.102.97-12.52l9.029-9.03 21.816 21.824-3.515 3.515c-2.26 2.24-2.345 5.994 0 8.36l28.08 28.08c2.288 2.288 6.045 2.314 8.36 0l3.52-3.52 21.816 21.824-9.036 9.025c-3.404 3.405-8.687 3.777-12.5.982zm-49.76-98.87c.369-.37.934-.356 1.29 0l20.53 20.53c.35.33.366.902 0 1.29l-5.245 5.245-21.825-21.815zm58.26 58.26c.363-.363.929-.362 1.29 0l20.53 20.53c.367.367.345.925 0 1.29l-5.245 5.245-21.824-21.816z"/></g></svg>