<?xml version="1.0" ?><svg data-name="Human 2" height="60" id="Human_2" viewBox="0 0 60 60" width="60" xmlns="http://www.w3.org/2000/svg"><title/><path d="M44.52967,42.47l1.88.22a4.02355,4.02355,0,0,1,3.51,3.49l1.05,8.4a4.00687,4.00687,0,0,1-3.98,4.5h-6.03c-2.81,0-6.87-3.14-8.84-13.98v-.11a38.46934,38.46934,0,0,0,7.84-.74c1.69-.35,2.87-.97,3.42-2.06l.13.02A3.82166,3.82166,0,0,0,44.52967,42.47Z" style="fill:#b1f1a8"/><path d="M46.40967,42.69a4.02355,4.02355,0,0,1,3.51,3.49l1.05,8.4a4.00687,4.00687,0,0,1-3.98,4.5h-6.03c-2.81,0-6.87-3.14-8.84-13.98v-.11a38.46934,38.46934,0,0,0,7.84-.74c1.69-.35,2.87-.97,3.42-2.06Z" style="fill:#89dbba"/><path d="M49.91968,46.18a4.02347,4.02347,0,0,0-3.51-3.49l-3.03-.5v3l3.03.5a4.02347,4.02347,0,0,1,3.51,3.49Z" style="fill:#fff;opacity:0.5"/><path d="M50.80963,53.29956A4.013,4.013,0,0,1,46.98969,56.08h-6.03c-2.54187,0-6.10138-2.59058-8.21667-11.10461-.20795.00482-.404.011-.62329.01465v.11c1.97,10.84,6.03,13.98,8.84,13.98h6.03a4.00687,4.00687,0,0,0,3.98-4.5Z" style="fill:#2c4b75;opacity:0.2"/><path d="M44.52967,42.47l1.88.22c1.065.75934-1.605,2.65985-2.65967,3.31-2.875,1.77222-10.57547,2.1483-10.68751,1.75-.33961-1.20744-.673-1.16544-.94282-2.65v-.11a38.46934,38.46934,0,0,0,7.84-.74c1.69-.35,2.87-.97,3.42-2.06l.13.02A3.82166,3.82166,0,0,0,44.52967,42.47Z" style="fill:#2c4b75;opacity:0.2"/><path d="M41.875,21.2675c-3.93-.12-8.09533-.12-10.55533-.12.14-1.69.32-3.25.55-4.68,1.77-11.89,5.91-15.28,9.09-15.28h6.03a4.00687,4.00687,0,0,1,3.98,4.5l-1.05,8.41a4.01332,4.01332,0,0,1-3.51,3.48l-1.88.22a3.93071,3.93071,0,0,0-2.17.97Z" style="fill:#89dbba"/><path d="M49.91968,11.09747a4.01335,4.01335,0,0,1-3.51,3.48c-3.84718-.14-6.78467,2.29749-7.22218,3.67249s-.875,2.6875-.875,2.6875c.13282.00378,3.43018.32593,3.56251.33l.48468-2.5a3.93051,3.93051,0,0,1,2.17-.97l1.88-.22a4.01335,4.01335,0,0,0,3.51-3.48l1.05-8.41a3.97348,3.97348,0,0,0-.15991-1.7193Z" style="fill:#2c4b75;opacity:0.2"/><g style="opacity:0.5"><path d="M31.86969,19.46747c1.77-11.89,5.91-15.58,9.09-15.58h6.03a4.29522,4.29522,0,0,1,3.82007,3.0807l.15991-1.2807a4.00687,4.00687,0,0,0-3.98-4.5h-6.03c-3.18,0-7.32,3.39-9.09,15.28-.23,1.43-.41,2.99-.55,4.68h.31866C31.711,20.57532,31.78351,20.00311,31.86969,19.46747Z" style="fill:#fff"/><path d="M43.09552,21.26233c.06067.00177.12421.0033.18414.00513V21.162C43.21625,21.1922,43.157,21.22894,43.09552,21.26233Z" style="fill:#fff"/></g><path d="M46.11967,32.98a4.626,4.626,0,0,1,.6,2.73,3.37919,3.37919,0,0,1-3.2,3.29v.08a5.10822,5.10822,0,0,1,.19,1.84,3.34793,3.34793,0,0,1-.33,1.27c-.55,1.09-1.73,1.71-3.42,2.06a38.46934,38.46934,0,0,1-7.84.74c-.6.01-1.24.01-1.93.01-4,0-6.01-2.13-7.51-3h-5.68V22h7.36c3.27-3.47,5.68-5.27,6.9-5.62a3.89449,3.89449,0,0,1,.49-.12l.12.02c-.23,1.43-.41,2.99-.55,4.68,2.46,0,8.03,0,11.96.12,1.17.03,2.2.08,2.95.14a2.78747,2.78747,0,0,1,2.74,2.94,2.72757,2.72757,0,0,1-2.58,2.81h-1.17a2.75441,2.75441,0,0,1,3,3.01,2.9252,2.9252,0,0,1-2.15,2.84Z" style="fill:#f9e2dc"/><g style="opacity:0.2"><path d="M43.3797,39.19c-.55,1.09-1.73,1.71-3.42,2.06a38.47152,38.47152,0,0,1-7.84.74c-.6.01-1.24.01-1.93.01-4,0-6.01-2.13-7.51-3h-5.68v3h5.68c1.5.87,3.51,3,7.51,3,.69,0,1.33,0,1.93-.01a38.47152,38.47152,0,0,0,7.84-.74c1.69-.35,2.87-.97,3.42-2.06A9.93506,9.93506,0,0,0,44,40Z" style="fill:#cc7e54"/><path d="M43.0029,42.97982,36.99,44.4375a8.41,8.41,0,0,0,.72272-5.64907,7.46507,7.46507,0,0,0,.7314-5.71671c.96575-2.04516,1.41909-4.04543.761-5.94829a8.52581,8.52581,0,0,0,.761-5.94813l7.08649-.00537s1.8605,1.04432,2.114,1.82748a4.72553,4.72553,0,0,1,0,2.49021c-.19009.57408-1.8221,1.8221-1.8221,1.8221a3.88047,3.88047,0,0,1,1.27642,3.39345c-.2597,1.15423-2.077,2.20072-2.077,2.20072a8.23014,8.23014,0,0,1,.22471,3.9415,3.15539,3.15539,0,0,1-2.48317,2.22713Z" style="fill:#cc7e54"/></g><g style="opacity:0.5"><path d="M30.90729,21.71757a2.00384,2.00384,0,0,0,1.98142,2.24383c2.97659.00485,7.36094.026,10.391.11855,1.17.03,2.2.08,2.95.14a2.88289,2.88289,0,0,1,2.35168,1.38855A2.899,2.899,0,0,0,48.96967,24.16a2.78747,2.78747,0,0,0-2.74-2.94c-.75-.06-1.78-.11-2.95-.14-3.77234-.11517-9.68628-.11981-12.27966-.12Q30.95237,21.33509,30.90729,21.71757Z" style="fill:#fff"/><path d="M31.25964,19.38c.07245-.02264.14844-.03577.2218-.05432.11163-1.06549.23529-2.09509.38824-3.04572l-.12-.02a3.881,3.881,0,0,0-.49005.12c-1.22.35-3.62994,2.15-6.9,5.62h-7.36v3h6.19987a2.71284,2.71284,0,0,0,1.93839-.81124C28.01268,21.24761,30.13859,19.7016,31.25964,19.38Z" style="fill:#fff"/></g><path d="M46.98975,60.08008H40.95947c-1.67334,0-7.32764-1.06738-9.82373-14.80127a1,1,0,0,1,1.96777-.35742c1.76514,9.7124,5.33545,13.15869,7.856,13.15869h6.03027a3.00664,3.00664,0,0,0,2.98779-3.37549L48.92725,46.3042A3.01686,3.01686,0,0,0,46.29,43.68262l-1.87646-.21924a4.825,4.825,0,0,1-1.28027-.32715.99985.99985,0,1,1,.75293-1.85254,2.85573,2.85573,0,0,0,.75391.19287l1.88574.22021a5.01414,5.01414,0,0,1,4.38574,4.35889l1.05029,8.40039a5.0067,5.0067,0,0,1-4.97217,5.624Z" style="fill:#6d6daa"/><path d="M16.99967,42v.5a1.498,1.498,0,0,1-1.5,1.5h-7.78a1.49446,1.49446,0,0,1-1.48-1.26c-1.22-7.27-1.27-17.67-1.23-21.25a1.49806,1.49806,0,0,1,1.51-1.49h8.96a1.51933,1.51933,0,0,1,1.52,1.52V42Z" style="fill:#97c1ff"/><path d="M6.23969,42.74a1.49447,1.49447,0,0,0,1.48,1.26h7.78a1.498,1.498,0,0,0,1.5-1.5v-3a1.498,1.498,0,0,1-1.5,1.5h-7.78a1.49447,1.49447,0,0,1-1.48-1.26Z" style="fill:#2c4b75;opacity:0.2"/><path d="M15.47968,20h-8.96a1.49808,1.49808,0,0,0-1.51,1.49c-.00861.77228-.01215,1.87549-.00153,3.18268.00055-.05774.00092-.12805.00153-.18268a1.49808,1.49808,0,0,1,1.51-1.49h8.96a1.51931,1.51931,0,0,1,1.52,1.52v-3A1.51931,1.51931,0,0,0,15.47968,20Z" style="fill:#fff;opacity:0.5"/><path d="M31.3208,21.96c-.02734,0-.05518-.001-.0835-.00342a.99986.99986,0,0,1-.91406-1.0791c.14648-1.77148.3291-3.32715.55908-4.75635C33.04834,1.57178,38.65137,0,40.95947,0h6.03027a5.00679,5.00679,0,0,1,4.97217,5.62451l-1.05029,8.40967a5.00784,5.00784,0,0,1-4.38232,4.34863L44.646,18.603a2.92951,2.92951,0,0,0-1.61768.7207,2.96652,2.96652,0,0,0-.98389,1.72949,1,1,0,0,1-1.96973-.34668,4.95966,4.95966,0,0,1,1.63086-2.88281,4.90271,4.90271,0,0,1,2.70459-1.20654l1.8833-.22021a3.0096,3.0096,0,0,0,2.63379-2.61133L49.97754,5.376A3.00673,3.00673,0,0,0,46.98975,2H40.95947C39.563,2,34.85156,3.04053,32.85889,16.42725c-.22363,1.38916-.40039,2.895-.54248,4.61523A.99971.99971,0,0,1,31.3208,21.96Z" style="fill:#6d6daa"/><path d="M15.49951,45H7.71973a2.49272,2.49272,0,0,1-2.4668-2.09717C3.92969,35.01953,3.98535,23.67334,4.00977,21.479A2.50072,2.50072,0,0,1,6.51953,19h8.96a2.52274,2.52274,0,0,1,2.52,2.52V42.5A2.50294,2.50294,0,0,1,15.49951,45Zm-8.98-24a.50062.50062,0,0,0-.50977.49023C5.98535,23.666,5.93018,34.85547,7.22607,42.57471A.4949.4949,0,0,0,7.71973,43h7.77979a.50034.50034,0,0,0,.5-.5V21.52a.52076.52076,0,0,0-.52-.52Z" style="fill:#6d6daa"/><path d="M13.00977,40.08984a1.00244,1.00244,0,1,1,.37988-1.93018.95738.95738,0,0,1,.33008.22021.76964.76964,0,0,1,.12012.1499.9543.9543,0,0,1,.1001.16992,1.29755,1.29755,0,0,1,.0498.18994.68268.68268,0,0,1,.02.2002.61444.61444,0,0,1-.02.18994,1.29755,1.29755,0,0,1-.0498.18994.9543.9543,0,0,1-.1001.16992.43831.43831,0,0,1-.12012.15039.83186.83186,0,0,1-.33008.21973A.98848.98848,0,0,1,13.00977,40.08984Z" style="fill:#6d6daa"/><path d="M44.45947,27.97021h-5.25a1,1,0,0,1,0-2h5.25a1,1,0,0,1,0,2Z" style="fill:#6d6daa"/><path d="M43.2793,21.96a1.001,1.001,0,0,1-.96436-.73682,13.77829,13.77829,0,0,0-.76807-2.10205,1.00013,1.00013,0,1,1,1.78516-.90234,15.62408,15.62408,0,0,1,.9126,2.47852A1.00008,1.00008,0,0,1,43.2793,21.96Z" style="fill:#6d6daa"/><path d="M21.9292,25.72021a1,1,0,0,1-.76123-1.64746c.91357-1.07471,1.79395-2.03564,2.4585-2.75293,3.15869-3.35205,5.76953-5.4458,7.35742-5.90137a4.77962,4.77962,0,0,1,.59033-.14307.99986.99986,0,0,1,.35059,1.96875,3.05476,3.05476,0,0,0-.36719.09033c-.91455.2627-3.13867,1.81592-6.46973,5.35156-.646.69629-1.50732,1.63623-2.39648,2.68164A.99681.99681,0,0,1,21.9292,25.72021Z" style="fill:#6d6daa"/><path d="M43.42969,40H37.56982a1,1,0,0,1,0-2h5.85986a2.40218,2.40218,0,0,0,2.292-2.35107,3.65438,3.65438,0,0,0-.481-2.19238.99979.99979,0,0,1,1.75781-.95312,5.63928,5.63928,0,0,1,.71973,3.26367,4.3824,4.3824,0,0,1-4.17041,4.23242C43.53857,40,43.439,40,43.42969,40Z" style="fill:#6d6daa"/><path d="M45.0498,33.98H38.45947a1,1,0,0,1,0-2H45.0498a2.11439,2.11439,0,0,0,.69434-.10547A1.9333,1.9333,0,0,0,47.21973,29.98a1.77087,1.77087,0,0,0-2-2.00977h-.76025a1,1,0,0,1,0-2h.76025a3.75294,3.75294,0,0,1,4,4.00977,3.90032,3.90032,0,0,1-2.86621,3.79883A4.04939,4.04939,0,0,1,45.0498,33.98Z" style="fill:#6d6daa"/><path d="M24.3999,23H16.99951a1,1,0,0,1,0-2h7.36035a1.01733,1.01733,0,0,1,1.02,1A.98316.98316,0,0,1,24.3999,23Z" style="fill:#6d6daa"/><path d="M30.18945,46a11.5398,11.5398,0,0,1-7.09277-2.52246c-.24854-.17432-.47949-.33789-.69824-.47754H16.99951a1,1,0,0,1,0-2h5.68018a1.0019,1.0019,0,0,1,.502.13477c.32715.19043.67822.43506,1.06494.70654A9.63948,9.63948,0,0,0,30.21045,44c.67676,0,1.30371,0,1.89307-.00977a37.64849,37.64849,0,0,0,7.65234-.71924c1.49219-.30908,2.35986-.7959,2.73145-1.53174a2.328,2.328,0,0,0,.22412-.88135,4.12283,4.12283,0,0,0-.15674-1.51562.99984.99984,0,0,1,1.92969-.52441,6.04624,6.04624,0,0,1,.22217,2.17676,4.3444,4.3444,0,0,1-.42725,1.63184c-.666,1.31982-2.01025,2.1665-4.11719,2.60254a39.43918,39.43918,0,0,1-8.02588.76123C31.53076,46,30.88574,46,30.18945,46Z" style="fill:#6d6daa"/><path d="M46.38965,27.97021H45.21973a1,1,0,0,1,0-2h1.16992a1.72635,1.72635,0,0,0,1.58008-1.81006,1.79456,1.79456,0,0,0-1.81787-1.94287c-.75244-.06055-1.78076-.10889-2.89746-.1377C39.33447,21.96,33.71826,21.96,31.31982,21.96a1,1,0,0,1,0-2c2.40723,0,8.04492,0,11.99072.12061,1.14648.0293,2.21338.08008,2.99854.14307a3.80225,3.80225,0,0,1,3.66064,3.93652A3.70448,3.70448,0,0,1,46.38965,27.97021Z" style="fill:#6d6daa"/></svg>