<?xml version="1.0" ?><svg enable-background="new 0 0 512 512" version="1.1" viewBox="0 0 512 512" xml:space="preserve" xmlns="http://www.w3.org/2000/svg" xmlns:xlink="http://www.w3.org/1999/xlink"><g id="Colors"><g><path d="M136.581,361.24c3.174,0.626,12.648,0.617,12.648,0.617c95.269-3.133,97.456-238.814,97.456-238.814    c-0.133-8.884-5.133-10.988-5.133-10.988L145.401,94.59l-19.104-3.471l-15.466-2.81c0,0-5.512-0.232-8.425,8.525    c0,0-83.293,224.232,8.915,258.657c0,0,9.389,3.154,15.175,3.886L136.581,361.24z" fill="#F0F3F7"/></g><g><path d="M239.333,195.653c-14.332-2.659-29.083-2.573-43.627-0.273c-13.13,2.077-25.803,6.898-38.842,9.782    c-27.649,6.116-56.471,6.923-82.431-4.73c0,0-38.511,142.212,52.252,159.051C231.1,378.855,239.333,195.653,239.333,195.653z" fill="#FFD2C7"/></g><g opacity="0.15"><path d="M127.487,359.632c0,0,23.437,11.829,47.74-46.84c21.068-50.86,38.046-181.474,34.069-206.596l32.256,5.859    c0,0,4.957,1.67,5.453,9.766c0.496,8.096-6.907,105.535-19.718,147.716C227.287,269.538,204.066,381.266,127.487,359.632z" fill="#3F456B"/></g><g opacity="0.5"><polygon fill="#FFFFFF" points="246.48,124.29 102.177,98.077 109.132,88 243.249,112.363   "/></g><g opacity="0.5"><path d="M127.753,359.683c0,0-33.712-9.274-40.539-75.829c-2.157-21.035-0.357-41.214,3.052-58.867    c7.057-36.571,34.313-133.922,34.313-133.922l30.383,5.308c0,0-23.562,99.676-31.017,130.588    c-2.971,12.32-5.493,25.088-6.743,36.723C112.822,304.517,117.99,345.896,127.753,359.683z" fill="#FFFFFF"/></g><g opacity="0.5"><path d="M164.891,184.466c-9.11,49.527-33.375,80.501-55.557,76.471c-22.183-4.03-37.549-32.353-24.773-91.063    c11.487-52.788,33.345-80.341,55.528-76.311C162.271,97.592,174.769,130.762,164.891,184.466z" fill="#FFFFFF"/></g><g><path d="M123.137,152.156c-1.432,7.869-7.692,13.316-13.981,12.171c-6.288-1.144-10.225-8.448-8.792-16.316    c1.432-7.866,7.69-13.315,13.978-12.17C120.632,136.986,124.569,144.292,123.137,152.156z" fill="#FFFFFF"/></g><g opacity="0.7"><g><g><path d="M295.381,91.474c-2.172,0-4.171-1.426-4.803-3.616c-0.765-2.653,0.767-5.425,3.42-6.189l20.071-5.785      c2.658-0.76,5.425,0.769,6.189,3.42c0.765,2.653-0.767,5.425-3.42,6.189l-20.071,5.785      C296.305,91.41,295.839,91.474,295.381,91.474z" fill="#3F456B"/></g></g><g><g><path d="M284.696,73.602c-1.248,0-2.497-0.465-3.468-1.398c-1.988-1.916-2.048-5.081-0.133-7.07l14.825-15.393      c1.916-1.987,5.079-2.048,7.07-0.133c1.988,1.916,2.048,5.081,0.133,7.07L288.299,72.07      C287.317,73.089,286.008,73.602,284.696,73.602z" fill="#3F456B"/></g></g><g><g><path d="M266.86,63.746c-0.398,0-0.803-0.048-1.207-0.147c-2.681-0.665-4.314-3.376-3.65-6.057l5.143-20.745      c0.664-2.682,3.375-4.312,6.057-3.65c2.681,0.665,4.314,3.376,3.65,6.057l-5.143,20.745      C271.146,62.225,269.104,63.746,266.86,63.746z" fill="#3F456B"/></g></g><g><g><path d="M246.541,63.813c-2.172,0-4.171-1.425-4.803-3.616l-5.786-20.072c-0.765-2.653,0.767-5.424,3.42-6.189      c2.653-0.762,5.425,0.767,6.189,3.42l5.786,20.072c0.765,2.653-0.767,5.424-3.42,6.189      C247.466,63.75,246.999,63.813,246.541,63.813z" fill="#3F456B"/></g></g><g><g><path d="M229.017,74.65c-1.248,0-2.497-0.465-3.468-1.398l-15.393-14.825c-1.989-1.916-2.048-5.081-0.133-7.07      c1.915-1.987,5.079-2.048,7.07-0.133l15.393,14.825c1.988,1.916,2.048,5.081,0.133,7.07      C231.638,74.138,230.328,74.65,229.017,74.65z" fill="#3F456B"/></g></g><g><g><path d="M219.164,92.492c-0.398,0-0.803-0.048-1.207-0.147l-20.744-5.143c-2.68-0.665-4.314-3.376-3.65-6.057      c0.664-2.681,3.373-4.312,6.056-3.65l20.744,5.143c2.681,0.665,4.314,3.376,3.65,6.057      C223.449,90.971,221.408,92.492,219.164,92.492z" fill="#3F456B"/></g></g></g><g opacity="0.7"><g><g><path d="M230.472,338.19c-0.838,0-1.687-0.211-2.467-0.654c-2.4-1.365-3.239-4.418-1.875-6.818l10.658-18.741      c1.366-2.4,4.418-3.239,6.818-1.875c2.4,1.365,3.239,4.418,1.875,6.818l-10.658,18.741      C233.901,337.281,232.211,338.19,230.472,338.19z" fill="#3F456B"/></g></g><g><g><path d="M261.018,346c-2.746,0-4.98-2.217-4.999-4.967l-0.14-21.071c-0.019-2.762,2.205-5.015,4.967-5.033      c0.011,0,0.022,0,0.034,0c2.746,0,4.98,2.217,4.999,4.967l0.14,21.071c0.019,2.762-2.205,5.015-4.967,5.033      C261.041,346,261.029,346,261.018,346z" fill="#3F456B"/></g></g><g><g><path d="M291.763,337.788c-1.717,0-3.388-0.885-4.318-2.473l-10.901-18.6c-1.396-2.383-0.598-5.445,1.785-6.842      c2.381-1.398,5.445-0.598,6.842,1.785l10.901,18.6c1.396,2.383,0.598,5.445-1.785,6.842      C293.492,337.566,292.621,337.788,291.763,337.788z" fill="#3F456B"/></g></g></g><g><path d="M474.379,290.662c0,3.574-2.897,6.473-6.473,6.473c-3.574,0-6.473-2.898-6.473-6.473    c0-3.574,2.898-6.474,6.473-6.474C471.482,284.189,474.379,287.088,474.379,290.662z" fill="#3F456B"/></g><g><path d="M87.379,363.662c0,3.574-2.896,6.473-6.473,6.473c-3.574,0-6.473-2.898-6.473-6.473    c0-3.574,2.898-6.474,6.473-6.474C84.482,357.189,87.379,360.088,87.379,363.662z" fill="#3F456B"/></g><g opacity="0.7"><g opacity="0.8"><path d="M200.96,270.084c-0.754,4.065-4.661,6.747-8.725,5.993c-4.065-0.754-6.75-4.66-5.996-8.724     c0.754-4.066,4.661-6.749,8.726-5.995C199.03,262.112,201.715,266.017,200.96,270.084z" fill="#FFFFFF"/></g><g opacity="0.8"><path d="M181.741,242.109c-0.754,4.065-4.661,6.747-8.725,5.993c-4.065-0.754-6.75-4.66-5.996-8.724     c0.754-4.066,4.661-6.749,8.726-5.995C179.811,234.137,182.495,238.042,181.741,242.109z" fill="#FFFFFF"/></g><g opacity="0.8"><path d="M119.891,279.453c-0.754,4.065-4.661,6.747-8.725,5.993c-4.065-0.754-6.75-4.66-5.996-8.724     c0.754-4.066,4.661-6.749,8.726-5.995C117.961,271.481,120.645,275.387,119.891,279.453z" fill="#FFFFFF"/></g><g opacity="0.8"><path d="M147.086,334.105c-0.097,3.142-3.173,5.253-6.14,4.215c-1.846-0.646-3.11-2.489-3.047-4.444     c0.102-3.136,3.17-5.243,6.134-4.211C145.88,330.307,147.146,332.149,147.086,334.105z" fill="#FFFFFF"/></g><g opacity="0.8"><path d="M149.086,299.105c-0.097,3.142-3.173,5.253-6.14,4.215c-1.846-0.646-3.11-2.489-3.047-4.444     c0.102-3.136,3.17-5.243,6.134-4.211C147.88,295.307,149.146,297.149,149.086,299.105z" fill="#FFFFFF"/></g><g opacity="0.8"><path d="M211.086,219.105c-0.097,3.142-3.173,5.253-6.14,4.215c-1.846-0.646-3.11-2.489-3.047-4.444     c0.102-3.136,3.17-5.243,6.134-4.211C209.88,215.307,211.146,217.149,211.086,219.105z" fill="#FFFFFF"/></g></g><g><path d="M107.47,493.96c-0.284,0-0.571-0.024-0.86-0.074c-2.721-0.473-4.544-3.061-4.072-5.781l22.31-128.598    c0.472-2.722,3.061-4.547,5.781-4.072c2.721,0.473,4.544,3.061,4.072,5.781l-22.31,128.598    C111.968,492.245,109.856,493.96,107.47,493.96z" fill="#3F456B"/></g><g><path d="M395.363,354.917c3.196-0.507,12.086-3.78,12.086-3.78c88.352-35.778,9.17-257.77,9.17-257.77    c-3.187-8.294-8.606-8.546-8.606-8.546l-96.279,16.746l-19.13,3.327l-15.487,2.694c0,0-5.254,1.682-4.97,10.907    c0,0-0.901,239.201,97.522,239.734c0,0,9.901-0.275,15.585-1.582L395.363,354.917z" fill="#F0F3F7"/></g><g><path d="M434.744,164.06c0.948,2.99-4.154,11.229-5.683,13.769c-2.47,4.104-5.715,7.862-9.773,10.47    c-11.314,7.271-25.856,4.476-38.083,1.621c-16.442-3.839-33.56-6.683-50.464-6.683c-18.53,0.478-36.356,5.251-53.492,12.105    c0,0,17.213,176.813,108.217,161.336C490.134,338.878,434.773,164.152,434.744,164.06z" fill="#FFD2C7"/></g><g opacity="0.15"><path d="M386.272,356.542c0,0,26.079,3.026,28.67-60.425c2.246-55.005-26.835-183.468-39.228-205.679l32.299-5.617    c0,0,5.229-0.141,8.485,7.288c3.256,7.429,29.891,101.449,32.404,145.461C448.903,237.57,465.615,350.455,386.272,356.542z" fill="#3F456B"/></g><g opacity="0.5"><polygon fill="#FFFFFF" points="416.856,94.607 272.361,119.738 275.417,107.882 409.712,84.525   "/></g><g opacity="0.5"><path d="M386.539,356.498c0,0-34.842,2.914-64.192-57.21c-9.275-19.002-14.541-38.566-17.425-56.311    c-5.98-36.762-13.95-137.543-13.95-137.543l30.351-5.49c0,0,12.238,101.689,15.895,133.276c1.458,12.59,3.491,25.444,6.328,36.796    C353.509,309.859,372.622,346.921,386.539,356.498z" fill="#FFFFFF"/></g><g opacity="0.5"><path d="M361.008,179.217c8.519,49.632-3.583,87.071-25.795,90.935c-22.213,3.863-46.399-17.428-54.642-76.944    c-7.412-53.513,3.61-86.911,25.823-90.774C328.605,98.57,351.77,125.4,361.008,179.217z" fill="#FFFFFF"/></g><g><path d="M310.677,163.279c1.368,7.881-2.631,15.152-8.929,16.244c-6.297,1.093-12.51-4.406-13.877-12.286    c-1.367-7.877,2.629-15.15,8.927-16.242C303.095,149.902,309.31,155.403,310.677,163.279z" fill="#FFFFFF"/></g><g opacity="0.7"><g opacity="0.8"><path d="M432.398,247.648c0.693,4.076-2.049,7.94-6.125,8.633c-4.076,0.693-7.942-2.048-8.635-6.123     c-0.693-4.077,2.049-7.942,6.125-8.635C427.839,240.83,431.705,243.571,432.398,247.648z" fill="#FFFFFF"/></g><g opacity="0.8"><path d="M404.714,228.011c0.693,4.076-2.049,7.94-6.125,8.633c-4.076,0.693-7.942-2.048-8.635-6.123     c-0.693-4.077,2.049-7.942,6.125-8.635C400.155,221.193,404.021,223.934,404.714,228.011z" fill="#FFFFFF"/></g><g opacity="0.8"><path d="M359.526,284.385c0.693,4.076-2.049,7.94-6.125,8.633c-4.076,0.693-7.942-2.048-8.635-6.123     c-0.693-4.077,2.049-7.942,6.125-8.635C354.967,277.568,358.833,280.308,359.526,284.385z" fill="#FFFFFF"/></g><g opacity="0.8"><path d="M404.055,295.071c0.425,2.501-1.257,4.872-3.757,5.297c-2.501,0.425-4.873-1.257-5.298-3.757     c-0.425-2.501,1.257-4.873,3.758-5.298C401.258,290.888,403.63,292.569,404.055,295.071z" fill="#FFFFFF"/></g></g><g><path d="M412.046,489.846c-2.369,0-4.474-1.691-4.913-4.105l-23.382-128.406c-0.495-2.717,1.307-5.32,4.023-5.814    c2.72-0.505,5.319,1.308,5.814,4.023l23.382,128.406c0.495,2.717-1.307,5.32-4.023,5.814    C412.645,489.819,412.343,489.846,412.046,489.846z" fill="#3F456B"/></g><g><path d="M65.003,350c-1.494,0-2.972-0.666-3.957-1.939c-24.947-32.224-21.189-70.005-21.018-71.598    c0.297-2.746,2.76-4.746,5.509-4.434c2.744,0.296,4.729,2.761,4.434,5.505c-0.056,0.553-3.363,35.542,18.982,64.405    c1.69,2.184,1.291,5.323-0.893,7.015C67.15,349.659,66.073,350,65.003,350z" fill="#3F456B"/></g></g><g id="Lines"><g><path d="M149.116,366.857c-1.906,0-10.043-0.04-13.467-0.705l-9.927-1.833c-6.209-0.816-15.593-3.954-15.993-4.089    c-0.053-0.018-0.104-0.036-0.157-0.055c-22.764-8.499-37.382-28.229-43.448-58.645c-4.678-23.456-4.268-53.413,1.219-89.039    C76.446,153.394,96.77,97.673,97.688,95.177c3.249-9.67,9.924-12.045,13.353-11.863c0.229,0.009,0.458,0.034,0.684,0.075    l130.722,23.746c0.359,0.065,0.71,0.17,1.046,0.312c0.82,0.345,8.016,3.713,8.193,15.521c0.001,0.04,0.001,0.081,0.001,0.122    c-0.006,0.594-0.695,60.1-13.108,119.213c-7.348,34.988-17.322,63.082-29.647,83.502c-15.974,26.465-36.005,40.276-59.536,41.05    C149.304,366.857,149.22,366.857,149.116,366.857z M112.988,350.776c0.88,0.292,9.173,3.013,14.135,3.642    c0.094,0.012,0.187,0.026,0.28,0.043l10.086,1.862c0.02,0.004,0.04,0.008,0.06,0.012c1.836,0.362,7.828,0.522,11.568,0.522    c0.009,0,0.019,0,0.028,0c45.92-1.578,68.655-64.274,79.645-116.609c12.039-57.327,12.869-115.003,12.896-117.191    c-0.074-4-1.382-5.683-2.005-6.26L110.711,93.369c-0.624,0.225-2.273,1.17-3.562,5.044c-0.018,0.055-0.038,0.108-0.058,0.162    c-0.207,0.558-20.788,56.39-29.885,115.568c-5.294,34.438-5.72,63.199-1.266,85.485C81.283,326.35,93.747,343.558,112.988,350.776    z M110.62,93.304L110.62,93.304L110.62,93.304z" fill="#3F456B"/></g><g opacity="0.7"><path d="M112.93,214.37L112.93,214.37c-2.76-0.13-4.88-2.48-4.75-5.24l0,0c0.14-2.76,2.49-4.88,5.24-4.74l0,0l0,0    l0,0c2.76,0.13,4.89,2.48,4.75,5.24l0,0c-0.13,2.67-2.34,4.75-4.99,4.75l0,0C113.1,214.38,113.01,214.38,112.93,214.37z     M128.17,209.37c-0.25-2.75,1.78-5.181,4.53-5.431l0,0c2.75-0.25,5.18,1.78,5.43,4.53l0,0c0.25,2.75-1.78,5.18-4.52,5.43l0,0    c-0.16,0.011-0.31,0.021-0.46,0.021l0,0C130.59,213.92,128.41,211.97,128.17,209.37z M92.28,211.6    c-2.7-0.609-4.39-3.28-3.78-5.979l0,0c0.61-2.69,3.29-4.38,5.98-3.771l0,0c2.7,0.61,4.39,3.28,3.77,5.98l0,0    c-0.52,2.319-2.58,3.899-4.87,3.899l0,0C93.02,211.729,92.65,211.689,92.28,211.6z M148.03,206.979    c-0.55-2.71,1.21-5.35,3.91-5.89l0,0l0,0l0,0c2.71-0.54,5.34,1.21,5.89,3.92l0,0c0.55,2.7-1.21,5.34-3.91,5.88v0.01    c-0.34,0.061-0.67,0.101-0.99,0.101l0,0C150.59,211,148.51,209.35,148.03,206.979z M167.51,202.47c-0.77-2.66,0.77-5.43,3.43-6.19    l0,0c0,0,0,0,0,0.011l0,0c2.65-0.771,5.42,0.77,6.18,3.43l0,0c0.76,2.65-0.78,5.42-3.43,6.18l0,0c-0.46,0.13-0.92,0.19-1.38,0.19    l0,0C170.14,206.09,168.13,204.66,167.51,202.47z M72.38,204.99V205c-2.51-1.141-3.64-4.101-2.51-6.62l0,0    c1.13-2.51,4.09-3.64,6.61-2.51l0,0c2.52,1.13,3.65,4.09,2.51,6.609l0,0c-0.83,1.851-2.65,2.95-4.56,2.95l0,0    C73.74,205.43,73.05,205.29,72.38,204.99z M186.77,197.08c-0.54-2.71,1.22-5.34,3.93-5.88l0,0l0,0l0,0    c2.71-0.54,5.34,1.22,5.88,3.92l0,0c0.54,2.71-1.22,5.35-3.93,5.88l0,0c-0.33,0.069-0.66,0.1-0.98,0.1l0,0    C189.33,201.1,187.24,199.45,186.77,197.08z M230.91,199.439c-2.74-0.319-4.71-2.8-4.391-5.55l0,0c0.32-2.74,2.8-4.7,5.54-4.39    l0,0c2.75,0.319,4.71,2.81,4.4,5.55l0,0c-0.3,2.54-2.46,4.42-4.97,4.42l0,0C231.3,199.47,231.109,199.46,230.91,199.439z     M206.52,193.99c-0.11-2.75,2.03-5.091,4.78-5.211l0,0c0,0,0,0,0.01,0l0,0c2.75-0.119,5.09,2.021,5.21,4.78l0,0    c0.11,2.76-2.029,5.101-4.779,5.21l0,0c-0.08,0.01-0.15,0.01-0.221,0.01l0,0C208.86,198.779,206.64,196.68,206.52,193.99z" fill="#3F456B"/></g><g><path d="M147.039,500.824c-0.284,0-0.571-0.024-0.86-0.074L68.84,487.333c-2.721-0.473-4.544-3.061-4.072-5.781    c0.472-2.721,3.061-4.547,5.781-4.072l77.338,13.417c2.721,0.473,4.544,3.061,4.072,5.781    C151.537,499.109,149.425,500.824,147.039,500.824z" fill="#3F456B"/></g><g><path d="M369.67,363.227c-0.01,0-0.019,0-0.028,0c-24.298-0.132-44.821-13.614-60.998-40.075    c-12.477-20.406-22.417-48.669-29.545-84.002c-11.825-58.616-11.953-117.927-11.951-120.587    c-0.284-10.196,5.17-14.689,8.445-15.737c0.219-0.07,0.441-0.125,0.667-0.164l130.896-22.767c0.358-0.063,0.724-0.087,1.089-0.068    c0.889,0.041,8.804,0.722,13.041,11.746c0.015,0.038,0.028,0.076,0.042,0.114c0.2,0.56,20.063,56.656,28.785,116.426    c5.163,35.376,5.482,65.187,0.951,88.604c-5.873,30.35-19.916,50.218-41.738,59.056c-0.05,0.02-0.1,0.039-0.149,0.058    c-1.557,0.573-9.481,3.454-12.999,4.021l-9.947,1.699c-6.11,1.374-16.001,1.663-16.423,1.675    C369.762,363.226,369.716,363.227,369.67,363.227z M278.749,112.378c-0.507,0.426-1.73,1.881-1.604,5.961    c0.001,0.058,0.002,0.115,0.002,0.173c-0.002,0.594-0.078,60.099,11.779,118.787c6.899,34.152,16.413,61.299,28.276,80.684    c14.225,23.242,31.855,35.1,52.405,35.244c0.928-0.03,9.651-0.334,14.525-1.455c0.092-0.021,0.185-0.04,0.278-0.056l10.109-1.728    c0.02-0.003,0.039-0.007,0.059-0.01c1.856-0.294,7.558-2.217,11.065-3.506c42.562-17.31,42.295-84,34.573-136.916    c-8.458-57.96-27.557-112.384-28.289-114.454c-1.447-3.729-3.255-4.859-4.039-5.186L278.749,112.378z" fill="#3F456B"/></g><g><path d="M374.332,496.714c-2.369,0-4.474-1.691-4.913-4.105c-0.495-2.717,1.307-5.32,4.023-5.814l77.224-14.062    c2.717-0.501,5.319,1.307,5.814,4.023s-1.307,5.32-4.023,5.814l-77.224,14.062C374.931,496.688,374.629,496.714,374.332,496.714z" fill="#3F456B"/></g><g opacity="0.7"><path d="M272.79,197.62c-1.25-2.46-0.271-5.48,2.18-6.73l0,0c0,0,0,0,0.01,0l0,0c2.46-1.26,5.471-0.28,6.721,2.18    l0,0c1.26,2.46,0.279,5.471-2.181,6.73l0,0c-0.72,0.37-1.5,0.54-2.27,0.54l0,0C275.43,200.34,273.68,199.35,272.79,197.62z     M394.399,197.26v0.01c-2.75-0.21-4.819-2.609-4.609-5.359l0,0c0.21-2.761,2.609-4.82,5.359-4.62l0,0    c2.75,0.21,4.82,2.609,4.61,5.359l0,0c-0.2,2.63-2.39,4.63-4.979,4.63l0,0C394.649,197.279,394.53,197.27,394.399,197.26z     M409.8,191.729c-0.93-2.6,0.42-5.46,3.02-6.39l0,0c0,0,0,0-0.01-0.01l0,0c2.601-0.931,5.471,0.42,6.4,3.01l0,0    c0.939,2.6-0.41,5.47-3.01,6.41l0,0c-0.561,0.2-1.131,0.29-1.69,0.29l0,0C412.46,195.04,410.54,193.77,409.8,191.729z     M291.25,189.91c-0.72-2.66,0.859-5.41,3.52-6.131l0,0l0,0l0,0c2.67-0.71,5.41,0.86,6.13,3.53l0,0    c0.721,2.66-0.859,5.41-3.529,6.13h0.01c-0.44,0.11-0.88,0.17-1.311,0.17l0,0C293.87,193.609,291.85,192.14,291.25,189.91z     M374,193.069v-0.01c-2.681-0.67-4.3-3.39-3.63-6.06l0,0c0.68-2.681,3.39-4.311,6.069-3.63l0,0l0,0l0,0    c2.681,0.67,4.311,3.38,3.63,6.06l0,0c-0.569,2.271-2.609,3.79-4.85,3.79l0,0C374.819,193.22,374.41,193.17,374,193.069z     M310.72,185.359c-0.36-2.729,1.57-5.25,4.311-5.609l0,0c2.729-0.36,5.25,1.569,5.609,4.3l0,0c0.36,2.74-1.57,5.25-4.3,5.62l0,0    c-0.23,0.03-0.45,0.04-0.67,0.04l0,0C313.2,189.71,311.06,187.88,310.72,185.359z M354.97,189.51L354.97,189.51    c-2.74-0.34-4.689-2.83-4.36-5.57l0,0c0.341-2.739,2.841-4.689,5.58-4.359l0,0l0,0l0,0c2.74,0.34,4.681,2.84,4.351,5.58l0,0    c-0.311,2.529-2.471,4.39-4.96,4.39l0,0C355.38,189.55,355.17,189.529,354.97,189.51z M330.62,183.38    c-0.011-2.76,2.22-5.01,4.979-5.021l0,0c2.771-0.01,5.01,2.221,5.021,4.98l0,0c0.02,2.76-2.221,5.01-4.971,5.02l0,0    c-0.01,0-0.02,0-0.029,0l0,0C332.87,188.359,330.64,186.14,330.62,183.38z M427.21,182.1c-2.33-1.49-3.01-4.58-1.53-6.91l0,0    c1.48-2.33,4.58-3.01,6.91-1.529l0,0c2.32,1.489,3.01,4.58,1.52,6.909l0,0c-0.949,1.49-2.569,2.311-4.22,2.311l0,0    C428.97,182.88,428.04,182.63,427.21,182.1z" fill="#3F456B"/></g><g><circle cx="377" cy="46" fill="#FFD2C7" r="13"/></g><g><circle cx="332" cy="144" fill="#FFD2C7" r="9"/></g><g><circle cx="145" cy="64" fill="#FFD2C7" r="9"/></g><g><path d="M438.005,363.001c-1.616,0-3.201-0.782-4.165-2.228c-1.532-2.298-0.911-5.402,1.387-6.934    c21.854-14.568,25.777-43.192,25.814-43.479c0.354-2.738,2.859-4.673,5.599-4.319s4.673,2.86,4.319,5.599    c-0.176,1.358-4.586,33.454-30.186,50.521C439.921,362.729,438.958,363.001,438.005,363.001z" fill="#3F456B"/></g><g><g><path d="M452.407,70.727c-4.286,0.75-8.318,1.954-12.615,2.644c-2.522,0.405-10.846,2.753-12.387-0.566     c-0.292-0.629-0.133-1.366,0.048-2.035c1.288-4.787,3.519-9.206,5.637-13.663c0.288-0.606,2.2-4.661,3.606-7.316     c-4.432-5.633-10.52-15.26-11.02-19.862c-0.5-4.602,3.717-3.868,3.717-3.868c5.659-0.171,23.203,4.325,23.203,4.325     c5.101-7.69,11.888-14.678,13.57-16.265c0.695-0.656,1.559-1.266,2.523-1.424c0.971-0.159,2.09,0.134,2.898,0.68     c0.239,0.162,0.453,0.361,0.64,0.581c0.572,0.672,0.889,1.531,1.072,2.384c0.483,2.262,2.104,11.867,1.938,21.094     c0,0,16.995,6.258,21.557,9.612c0,0,3.888,1.791,0.864,5.295s-13.501,7.974-20.347,10.095     c-0.945,7.366-2.016,14.863-4.085,22.003c-0.479,1.654-1.764,2.68-3.526,2.134c-0.913-0.283-1.684-0.893-2.416-1.507     c-3.746-3.142-7.121-6.721-10.591-10.156c-0.726-0.719-1.451-1.438-2.176-2.157c-0.48-0.476-1.39-1.803-2.025-2.001     C452.491,70.754,452.407,70.727,452.407,70.727z" fill="#FFD2A6"/></g><g opacity="0.5"><circle cx="455.519" cy="42.575" fill="#FFFFFF" r="12.731"/></g><g><path d="M470.587,91.716c-0.774,0.001-1.568-0.118-2.366-0.365c-1.947-0.604-3.38-1.807-4.15-2.452     c-3.323-2.788-6.328-5.78-9.234-8.673l-1.61-1.601c-0.406-0.403-0.826-0.849-1.245-1.295c-0.333-0.354-0.664-0.708-0.985-1.026     c-0.052-0.052-0.108-0.11-0.168-0.174c-1.066,0.228-2.139,0.476-3.247,0.732c-2.241,0.519-4.558,1.055-6.995,1.446     c-0.323,0.052-0.757,0.144-1.267,0.248c-4.707,0.967-13.472,2.766-16.448-3.646c-1.084-2.335-0.474-4.594-0.244-5.444     c1.268-4.713,3.302-8.969,5.27-13.085l0.747-1.567c0.81-1.707,1.538-3.215,2.18-4.511c-4.01-5.523-9.517-14.307-10.117-19.835     c-0.415-3.817,1.065-6.089,2.38-7.322c2.307-2.163,5.216-2.213,6.555-2.09c0.012,0,0.023,0,0.035,0     c4.966,0,15.176,2.29,20.784,3.646c4.896-6.74,10.489-12.533,12.274-14.219c1.6-1.51,3.333-2.426,5.152-2.722     c2.174-0.358,4.611,0.192,6.503,1.473c0.6,0.403,1.158,0.905,1.65,1.486c1.036,1.216,1.762,2.757,2.15,4.574     c0.513,2.4,1.829,10.341,2.033,18.674c5.399,2.073,15.139,5.997,19.21,8.818c1.167,0.661,3.538,2.35,4.209,5.441     c0.382,1.762,0.311,4.473-2.198,7.379c-3.592,4.162-12.93,8.219-19.36,10.505c-0.572,6.802-1.927,13.346-4.114,19.908     C476.787,89.571,473.875,91.716,470.587,91.716z M452.406,65.728c0.501,0,1.001,0.075,1.482,0.225l0.085,0.026     c1.856,0.577,3.014,1.963,3.859,2.976c0.096,0.114,0.183,0.223,0.26,0.307c0.346,0.341,0.762,0.782,1.177,1.224     c0.335,0.356,0.669,0.714,0.992,1.035l1.63,1.619c2.5,2.489,4.879,4.858,7.419,7.081c1.741-5.9,2.726-11.816,3.005-18.008     c0.095-2.106,1.501-3.927,3.516-4.551c6.379-1.976,13.467-5.18,16.668-7.424c-4.101-2.316-13.412-6.056-18.989-8.109     c-1.997-0.736-3.31-2.654-3.271-4.782c0.134-7.472-0.986-15.304-1.58-18.662c-2.396,2.429-7.769,8.244-11.896,14.466     c-1.177,1.772-3.35,2.605-5.408,2.08c-5.758-1.476-15.546-3.683-20.237-4.104c1.361,3.663,5.378,10.324,9.508,15.573     c1.223,1.555,1.415,3.684,0.489,5.432c-0.578,1.092-1.644,3.187-3.436,6.967l-0.761,1.597c-1.434,2.998-2.805,5.867-3.829,8.784     c1.578-0.176,3.408-0.551,4.219-0.718c0.68-0.14,1.26-0.256,1.691-0.325c2.101-0.338,4.152-0.812,6.326-1.315     c1.997-0.463,4.063-0.941,6.221-1.318C451.831,65.752,452.119,65.728,452.406,65.728z M494.686,51.581     c0.006,0.003,0.012,0.005,0.017,0.007C494.697,51.586,494.691,51.583,494.686,51.581z M428.537,30.986     c0.006,0.001,0.012,0.002,0.019,0.004C428.549,30.988,428.543,30.987,428.537,30.986z M469.9,17.508L469.9,17.508L469.9,17.508z      M468.31,17.041L468.31,17.041L468.31,17.041z" fill="#3F456B"/></g></g><g><g><path d="M188.621,443.763c-4.279,0.79-8.3,2.032-12.589,2.763c-2.519,0.429-10.819,2.855-12.391-0.45     c-0.298-0.626-0.145-1.364,0.028-2.035c1.243-4.799,3.433-9.238,5.508-13.716c0.282-0.609,2.156-4.682,3.537-7.35     c-4.485-5.591-10.663-15.161-11.206-19.757c-0.543-4.597,3.681-3.903,3.681-3.903c5.657-0.224,23.243,4.107,23.243,4.107     c5.028-7.738,11.749-14.789,13.416-16.392c0.689-0.663,1.547-1.28,2.51-1.447c0.97-0.168,2.091,0.114,2.905,0.652     c0.241,0.159,0.457,0.357,0.646,0.575c0.579,0.667,0.904,1.523,1.094,2.374c0.505,2.257,2.216,11.846,2.136,21.074     c0,0,17.053,6.098,21.646,9.408c0,0,3.905,1.754,0.914,5.287c-2.991,3.533-13.426,8.101-20.252,10.286     c-0.875,7.374-1.876,14.882-3.878,22.041c-0.464,1.658-1.739,2.696-3.506,2.167c-0.916-0.274-1.692-0.877-2.43-1.484     c-3.776-3.107-7.184-6.654-10.686-10.055c-0.733-0.712-1.464-1.425-2.197-2.137c-0.485-0.471-1.407-1.79-2.044-1.982     C188.706,443.789,188.621,443.763,188.621,443.763z" fill="#FFD2A6"/></g><g opacity="0.5"><circle cx="191.468" cy="415.583" fill="#FFFFFF" r="12.731"/></g><g><path d="M206.925,464.581c-0.751,0-1.522-0.112-2.297-0.344c-1.952-0.585-3.397-1.775-4.174-2.414     c-3.349-2.756-6.381-5.72-9.314-8.586l-1.625-1.584c-0.409-0.397-0.833-0.839-1.255-1.28c-0.335-0.351-0.67-0.702-0.995-1.018     c-0.054-0.052-0.112-0.11-0.172-0.174c-1.062,0.236-2.131,0.494-3.235,0.761c-2.238,0.54-4.552,1.099-6.986,1.513     c-0.323,0.056-0.757,0.151-1.266,0.261c-4.697,1.009-13.444,2.89-16.48-3.491c-1.104-2.321-0.518-4.585-0.297-5.438     c1.226-4.733,3.222-9.012,5.153-13.15l0.736-1.581c0.791-1.709,1.501-3.217,2.128-4.512c-4.062-5.485-9.651-14.216-10.304-19.738     c-0.451-3.814,1.008-6.1,2.312-7.346c2.286-2.186,5.197-2.26,6.534-2.15c0.064-0.001,0.129-0.001,0.194-0.001     c5.023,0,15.098,2.161,20.66,3.451c4.831-6.785,10.369-12.631,12.139-14.333c1.588-1.526,3.312-2.458,5.127-2.771     c2.17-0.374,4.607,0.147,6.513,1.409c0.614,0.409,1.171,0.9,1.663,1.468c1.053,1.212,1.793,2.748,2.197,4.562     c0.535,2.392,1.927,10.319,2.208,18.651c5.419,2.021,15.195,5.854,19.293,8.637c1.173,0.649,3.561,2.316,4.26,5.402     c0.398,1.758,0.353,4.469-2.129,7.399c-3.551,4.193-12.851,8.338-19.26,10.685c-0.508,6.804-1.801,13.361-3.926,19.947     C213.168,462.403,210.242,464.581,206.925,464.581z M188.621,438.764c0.483,0,0.966,0.07,1.432,0.209l0.085,0.025     c1.869,0.562,3.04,1.938,3.894,2.942c0.097,0.114,0.186,0.222,0.264,0.306c0.346,0.334,0.768,0.772,1.188,1.212     c0.337,0.353,0.673,0.705,1,1.021l1.646,1.605c2.522,2.465,4.924,4.812,7.486,7.012c1.685-5.92,2.614-11.845,2.835-18.036     c0.075-2.106,1.463-3.94,3.472-4.583c6.36-2.037,13.418-5.308,16.597-7.58c-4.124-2.279-13.47-5.931-19.065-7.932     c-2.004-0.717-3.334-2.623-3.316-4.751c0.065-7.473-1.13-15.294-1.755-18.646c-2.372,2.45-7.69,8.317-11.757,14.577     c-1.16,1.784-3.323,2.638-5.388,2.131c-5.772-1.422-15.581-3.537-20.276-3.913c1.396,3.649,5.475,10.272,9.654,15.482     c1.238,1.544,1.449,3.671,0.54,5.428c-0.564,1.09-1.604,3.185-3.36,6.979l-0.75,1.611c-1.407,3.015-2.753,5.9-3.752,8.83     c1.577-0.189,3.403-0.582,4.212-0.757c0.679-0.146,1.258-0.268,1.689-0.341c2.098-0.357,4.148-0.853,6.318-1.376     c1.992-0.48,4.051-0.978,6.202-1.375C188.014,438.791,188.318,438.764,188.621,438.764z M164.377,404.249     c0.006,0.001,0.012,0.002,0.019,0.003C164.39,404.251,164.384,404.25,164.377,404.249z M166.459,402.427L166.459,402.427     L166.459,402.427z M204.018,389.93L204.018,389.93L204.018,389.93z" fill="#3F456B"/></g></g><g><g><path d="M61.782,96.653c-3.276,2.864-6.098,5.985-9.414,8.804c-1.946,1.655-7.845,7.979-10.884,5.94     c-0.576-0.386-0.822-1.099-1.015-1.765c-1.382-4.761-1.766-9.696-2.268-14.605c-0.068-0.667-0.537-5.126-0.711-8.125     c-6.711-2.517-16.909-7.591-19.723-11.266c-2.814-3.675,1.172-5.236,1.172-5.236c4.75-3.081,22.081-8.337,22.081-8.337     c0.372-9.221,2.551-18.715,3.166-20.944c0.254-0.922,0.676-1.891,1.419-2.526c0.748-0.64,1.856-0.97,2.831-0.922     c0.289,0.014,0.575,0.074,0.848,0.164c0.838,0.278,1.554,0.848,2.153,1.483c1.586,1.683,7.954,9.054,12.597,17.03     c0,0,17.776-3.464,23.416-2.963c0,0,4.253-0.486,3.485,4.079s-7.407,13.821-12.16,19.185c3.013,6.788,5.986,13.753,7.92,20.931     c0.448,1.663-0.118,3.206-1.908,3.653c-0.927,0.232-1.903,0.11-2.847-0.035c-4.833-0.744-9.575-2.053-14.322-3.19     c-0.993-0.238-1.986-0.477-2.98-0.716c-0.658-0.158-2.124-0.82-2.769-0.66C61.868,96.631,61.782,96.653,61.782,96.653z" fill="#FFD2A6"/></g><g opacity="0.5"><circle cx="49.841" cy="70.969" fill="#FFFFFF" r="12.731"/></g><g><path d="M42.822,116.832c-1.381,0-2.771-0.376-4.124-1.283c-2.133-1.43-2.786-3.677-3.031-4.522     c-1.363-4.699-1.832-9.398-2.284-13.944l-0.175-1.736c-0.192-1.87-0.35-3.527-0.473-4.959     c-6.292-2.643-15.555-7.294-18.938-11.711c-2.335-3.049-2.248-5.759-1.763-7.495c0.85-3.047,3.315-4.595,4.52-5.186     c4.229-2.579,14.181-5.929,19.692-7.683c0.69-8.307,2.468-16.157,3.12-18.522c0.583-2.116,1.588-3.798,2.988-4.996     c1.682-1.438,4.047-2.22,6.327-2.117c0.72,0.034,1.456,0.173,2.177,0.412c1.521,0.504,2.941,1.445,4.217,2.798     c1.685,1.789,6.931,7.897,11.424,14.912c5.691-1.028,16.055-2.716,20.998-2.425c1.349-0.036,4.244,0.174,6.42,2.47     c1.241,1.308,2.585,3.662,1.948,7.449c-0.911,5.419-6.792,13.73-11.104,19.021c3.038,6.112,5.275,12.411,6.809,19.156     c1.025,4.509-1.319,8.551-5.574,9.612c-1.97,0.493-3.823,0.208-4.818,0.055c-4.285-0.658-8.405-1.658-12.389-2.624l-2.21-0.534     c-0.558-0.134-1.148-0.297-1.739-0.461c-0.467-0.13-0.934-0.261-1.374-0.366c-0.071-0.018-0.149-0.038-0.232-0.062     c-0.792,0.746-1.58,1.514-2.392,2.306c-1.648,1.607-3.353,3.27-5.235,4.869c-0.248,0.211-0.572,0.515-0.953,0.867     C51.942,112.648,47.432,116.832,42.822,116.832z M23.041,73.836c3.064,2.427,9.953,6.039,16.206,8.384     c1.852,0.694,3.121,2.416,3.236,4.392c0.071,1.223,0.246,3.553,0.673,7.711l0.178,1.769c0.33,3.312,0.646,6.482,1.284,9.514     c1.258-0.969,2.629-2.24,3.236-2.803c0.508-0.472,0.943-0.872,1.275-1.154c1.623-1.38,3.133-2.853,4.732-4.411     c1.467-1.43,2.983-2.908,4.63-4.348c0.597-0.522,1.309-0.895,2.078-1.087l0.086-0.021c1.892-0.47,3.598,0.114,4.845,0.541     c0.142,0.049,0.272,0.096,0.383,0.128c0.473,0.112,1.055,0.273,1.636,0.436c0.473,0.131,0.946,0.264,1.39,0.37l2.237,0.54     c3.427,0.831,6.688,1.623,10.013,2.205c-1.573-5.947-3.799-11.516-6.771-16.955c-1.011-1.85-0.753-4.136,0.646-5.713     c4.429-5,8.828-11.415,10.4-14.992c-4.708,0.146-14.608,1.779-20.442,2.915c-2.089,0.405-4.207-0.554-5.278-2.392     c-3.755-6.451-8.778-12.569-11.03-15.135c-0.789,3.318-2.365,11.072-2.667,18.536c-0.086,2.127-1.509,3.966-3.545,4.584     C36.783,68.573,27.269,71.763,23.041,73.836z M20.779,75.05c-0.006,0.002-0.012,0.004-0.018,0.007     C20.767,75.055,20.773,75.052,20.779,75.05z M21.621,72.427L21.621,72.427L21.621,72.427z M47.533,42.503L47.533,42.503     L47.533,42.503z M49.137,42.078L49.137,42.078L49.137,42.078z" fill="#3F456B"/></g></g><g opacity="0.5"><g><path d="M174.909,80.525c-1.788-3.096-0.728-7.054,2.369-8.842c3.095-1.787,7.054-0.727,8.841,2.369     c1.787,3.095,0.727,7.054-2.369,8.842C180.654,84.682,176.697,83.62,174.909,80.525z" fill="#3F456B"/></g></g><g opacity="0.5"><g><path d="M193.909,46.525c-1.788-3.096-0.728-7.054,2.369-8.842c3.095-1.787,7.054-0.727,8.841,2.369     c1.787,3.095,0.727,7.054-2.369,8.842C199.654,50.682,195.697,49.62,193.909,46.525z" fill="#3F456B"/></g></g><g opacity="0.5"><g><path d="M229.909,24.525c-1.788-3.096-0.728-7.054,2.369-8.842c3.095-1.787,7.054-0.727,8.841,2.369     c1.787,3.095,0.727,7.054-2.369,8.842C235.654,28.682,231.697,27.62,229.909,24.525z" fill="#3F456B"/></g></g><g opacity="0.5"><g><path d="M272.909,23.525c-1.788-3.096-0.728-7.054,2.369-8.842c3.095-1.787,7.054-0.727,8.841,2.369     c1.787,3.095,0.727,7.054-2.369,8.842C278.654,27.682,274.697,26.62,272.909,23.525z" fill="#3F456B"/></g></g><g opacity="0.5"><g><path d="M307.909,45.525c-1.788-3.096-0.728-7.054,2.369-8.842c3.095-1.787,7.054-0.727,8.841,2.369     c1.787,3.095,0.727,7.054-2.369,8.842C313.654,49.682,309.697,48.62,307.909,45.525z" fill="#3F456B"/></g></g><g opacity="0.5"><g><path d="M326.909,78.525c-1.788-3.096-0.728-7.054,2.369-8.842c3.095-1.787,7.054-0.727,8.841,2.369     c1.787,3.095,0.727,7.054-2.369,8.842C332.654,82.682,328.697,81.62,326.909,78.525z" fill="#3F456B"/></g></g><g opacity="0.5"><g><path d="M295.909,354.525c-1.788-3.096-0.728-7.054,2.369-8.842c3.095-1.787,7.054-0.727,8.841,2.369     c1.787,3.095,0.727,7.054-2.369,8.842C301.654,358.682,297.697,357.62,295.909,354.525z" fill="#3F456B"/></g></g><g opacity="0.5"><g><path d="M217.909,354.525c-1.788-3.096-0.728-7.054,2.369-8.842c3.095-1.787,7.054-0.727,8.841,2.369     c1.787,3.095,0.727,7.054-2.369,8.842C223.654,358.682,219.697,357.62,217.909,354.525z" fill="#3F456B"/></g></g><g opacity="0.5"><g><path d="M255.909,363.525c-1.788-3.096-0.728-7.054,2.369-8.842c3.095-1.787,7.054-0.727,8.841,2.369     c1.787,3.095,0.727,7.054-2.369,8.842C261.654,367.682,257.697,366.62,255.909,363.525z" fill="#3F456B"/></g></g></g></svg>