<svg id="Layer_1" enable-background="new 0 0 512.002 512.002" height="512" viewBox="0 0 512.002 512.002" width="512" xmlns="http://www.w3.org/2000/svg"><g><path clip-rule="evenodd" d="m276.03 207.648-20.029-80.114-20.028 80.114-70.812-42.487 42.487 70.812-80.114 20.028 80.114 20.029-42.487 70.811 70.812-42.487 20.028 80.114 20.029-80.114 70.811 42.487-42.487-70.811 80.114-20.029-80.114-20.028 42.487-70.812z" fill="#ff764e" fill-rule="evenodd"/><g><path d="m256.001 56.267c5.523 0 10-4.477 10-10v-36.267c0-5.523-4.478-10-10-10s-10 4.477-10 10v36.267c0 5.523 4.477 10 10 10z"/><path d="m100.625 114.768c1.953 1.953 4.512 2.929 7.071 2.929s5.119-.976 7.071-2.929c3.905-3.905 3.905-10.237 0-14.143l-25.643-25.644c-3.905-3.905-10.237-3.905-14.143 0s-3.905 10.237 0 14.143z"/><path d="m46.267 246.001h-36.267c-5.523 0-10 4.477-10 10s4.477 10 10 10h36.267c5.523 0 10-4.477 10-10s-4.477-10-10-10z"/><path d="m100.625 397.234-25.645 25.645c-3.905 3.905-3.905 10.237 0 14.143 1.953 1.953 4.512 2.929 7.071 2.929s5.119-.976 7.071-2.929l25.645-25.645c3.905-3.905 3.905-10.237 0-14.143s-10.236-3.905-14.142 0z"/><path d="m256.001 455.735c-5.523 0-10 4.477-10 10v36.267c0 5.523 4.477 10 10 10s10-4.477 10-10v-36.267c0-5.523-4.477-10-10-10z"/><path d="m411.376 397.234c-3.906-3.905-10.236-3.905-14.143 0-3.905 3.905-3.905 10.237 0 14.143l25.645 25.645c1.953 1.953 4.512 2.929 7.071 2.929s5.118-.976 7.071-2.929c3.905-3.905 3.905-10.237 0-14.143z"/><path d="m354.784 340.641-34.911-58.184 65.828-16.457h35.034c5.522 0 10-4.477 10-10s-4.478-10-10-10h-35.034l-65.828-16.457 34.911-58.183 24.773-24.773c3.905-3.905 3.905-10.237 0-14.143-3.906-3.905-10.236-3.905-14.143 0l-24.776 24.776-58.181 34.908-16.456-65.826v-35.035c0-5.523-4.478-10-10-10s-10 4.477-10 10v35.035l-16.457 65.827-58.181-34.909-24.775-24.775c-3.905-3.905-10.237-3.905-14.143 0s-3.905 10.237 0 14.143l24.773 24.773 34.91 58.183-65.827 16.457h-35.034c-5.523 0-10 4.477-10 10s4.477 10 10 10h35.035l65.827 16.457-34.911 58.185-24.772 24.772c-3.906 3.905-3.906 10.237 0 14.142 1.953 1.953 4.512 2.929 7.071 2.929s5.119-.977 7.071-2.929l24.775-24.774 58.182-34.909 16.457 65.827v35.035c0 5.523 4.477 10 10 10s10-4.477 10-10v-35.037l16.456-65.826 58.181 34.908 24.776 24.776c1.953 1.953 4.512 2.929 7.071 2.929s5.118-.976 7.071-2.929c3.905-3.905 3.905-10.237 0-14.142zm-73.61-44.862c-2.717-1.63-6.047-1.875-8.972-.664-2.927 1.212-5.105 3.74-5.874 6.813l-10.328 41.308-10.327-41.308c-.769-3.074-2.948-5.601-5.875-6.813-1.229-.509-2.53-.761-3.826-.761-1.789 0-3.57.48-5.146 1.425l-36.512 21.907 21.907-36.512c1.63-2.717 1.876-6.045.664-8.972s-3.74-5.106-6.813-5.875l-41.308-10.327 41.308-10.327c3.074-.769 5.601-2.948 6.813-5.875s.966-6.255-.664-8.972l-21.907-36.511 36.512 21.907c2.717 1.629 6.046 1.875 8.972.664 2.927-1.212 5.106-3.74 5.875-6.813l10.327-41.308 10.328 41.308c.769 3.074 2.947 5.601 5.874 6.813 2.927 1.211 6.254.967 8.972-.664l36.512-21.907-21.907 36.511c-1.63 2.717-1.876 6.045-.664 8.972 1.213 2.927 3.74 5.106 6.813 5.875l41.309 10.327-41.309 10.327c-3.073.769-5.601 2.948-6.813 5.875s-.966 6.255.664 8.972l21.907 36.512z"/><path d="m502.002 246.001h-36.268c-5.522 0-10 4.477-10 10s4.478 10 10 10h36.268c5.522 0 10-4.477 10-10s-4.477-10-10-10z"/><path d="m404.305 117.697c2.56 0 5.118-.976 7.071-2.929l25.645-25.645c3.905-3.905 3.905-10.237 0-14.143-3.906-3.905-10.236-3.905-14.143 0l-25.645 25.645c-3.905 3.905-3.905 10.237 0 14.143 1.954 1.952 4.513 2.929 7.072 2.929z"/><path d="m161.868 38.735c1.314 0 2.65-.261 3.934-.811 5.077-2.175 7.428-8.054 5.252-13.13l-.003-.007c-2.175-5.076-8.05-7.423-13.129-5.249-5.076 2.175-7.426 8.058-5.25 13.134 1.625 3.792 5.316 6.063 9.196 6.063z"/><path d="m169.844 74.131 17.132 41.36c1.595 3.851 5.318 6.176 9.243 6.176 1.275 0 2.572-.245 3.823-.764 5.103-2.113 7.526-7.963 5.412-13.065l-17.132-41.36c-2.114-5.102-7.965-7.527-13.065-5.412-5.103 2.112-7.527 7.962-5.413 13.065z"/><path d="m24.793 171.055c1.284.551 2.62.811 3.934.811 3.88 0 7.571-2.271 9.196-6.063 2.176-5.077-.176-10.956-5.252-13.131l-.006-.003c-5.075-2.174-10.952.177-13.127 5.253-2.176 5.077.179 10.958 5.255 13.133z"/><path d="m66.478 188.322 41.36 17.131c1.251.519 2.547.764 3.823.764 3.924 0 7.648-2.325 9.243-6.176 2.114-5.103-.31-10.952-5.412-13.065l-41.36-17.131c-5.101-2.114-10.952.31-13.065 5.412s.308 10.952 5.411 13.065z"/><path d="m24.793 340.948-.007.003c-5.076 2.175-7.424 8.053-5.249 13.129 1.625 3.792 5.317 6.062 9.198 6.062 1.315 0 2.652-.261 3.936-.812 5.077-2.175 7.428-8.054 5.252-13.13-2.174-5.077-8.053-7.428-13.13-5.252z"/><path d="m107.838 306.549-41.36 17.132c-5.103 2.113-7.526 7.963-5.412 13.065 1.595 3.851 5.318 6.176 9.243 6.176 1.275 0 2.572-.245 3.823-.764l41.36-17.132c5.103-2.113 7.526-7.963 5.412-13.065s-7.966-7.529-13.066-5.412z"/><path d="m200.042 391.099c-5.101-2.113-10.952.31-13.065 5.412l-17.132 41.36c-2.114 5.103.31 10.952 5.412 13.065 1.251.519 2.547.764 3.823.764 3.924 0 7.647-2.325 9.243-6.176l17.132-41.36c2.112-5.101-.311-10.951-5.413-13.065z"/><path d="m165.802 474.078c-5.076-2.177-10.955.177-13.13 5.252l-.003.006c-2.176 5.077.177 10.952 5.253 13.127 1.284.55 2.619.811 3.933.811 3.881 0 7.574-2.273 9.2-6.066 2.175-5.075-.176-10.954-5.253-13.13z"/><path d="m346.2 474.078c-5.076 2.175-7.428 8.054-5.252 13.13l.003.007c1.625 3.791 5.313 6.06 9.192 6.06 1.314 0 2.651-.261 3.937-.812 5.076-2.175 7.427-8.058 5.251-13.134s-8.054-7.428-13.131-5.251z"/><path d="m342.159 437.871-17.132-41.36c-2.114-5.103-7.964-7.526-13.066-5.412-5.103 2.113-7.525 7.963-5.412 13.065l17.132 41.36c1.596 3.852 5.319 6.176 9.243 6.176 1.275 0 2.571-.245 3.823-.764 5.102-2.113 7.525-7.962 5.412-13.065z"/><path d="m487.209 340.948c-5.077-2.176-10.955.176-13.131 5.252s.176 10.955 5.252 13.13l.007.003c1.284.55 2.619.811 3.934.811 3.879 0 7.568-2.272 9.194-6.064 2.175-5.077-.179-10.957-5.256-13.132z"/><path d="m445.525 323.68-41.36-17.132c-5.104-2.113-10.951.31-13.066 5.412-2.113 5.103.31 10.952 5.412 13.065l41.36 17.132c1.252.519 2.548.764 3.823.764 3.924 0 7.647-2.325 9.243-6.176 2.113-5.102-.31-10.951-5.412-13.065z"/><path d="m483.275 171.866c1.313 0 2.65-.261 3.935-.811l.007-.003c5.076-2.175 7.424-8.053 5.249-13.129-2.176-5.076-8.056-7.427-13.135-5.25-5.076 2.175-7.428 8.054-5.252 13.131 1.625 3.791 5.316 6.062 9.196 6.062z"/><path d="m437.871 169.844-41.36 17.131c-5.103 2.113-7.525 7.963-5.412 13.065 1.596 3.851 5.319 6.176 9.243 6.176 1.275 0 2.571-.245 3.823-.764l41.36-17.131c5.103-2.113 7.525-7.963 5.412-13.065-2.114-5.102-7.962-7.526-13.066-5.412z"/><path d="m311.96 120.903c1.252.519 2.548.764 3.823.764 3.924 0 7.647-2.325 9.243-6.176l17.132-41.36c2.113-5.103-.31-10.952-5.412-13.065-5.102-2.114-10.952.31-13.066 5.412l-17.132 41.36c-2.113 5.102.31 10.952 5.412 13.065z"/><path d="m346.2 37.924c1.285.551 2.62.811 3.935.811 3.88 0 7.571-2.271 9.196-6.063l.003-.006c2.176-5.077-.178-10.952-5.254-13.127-5.076-2.177-10.957.179-13.132 5.256-2.176 5.075.176 10.954 5.252 13.129z"/></g></g></svg>