<?xml version="1.0" ?><svg enable-background="new 0 0 512 512" version="1.1" viewBox="0 0 512 512" xml:space="preserve" xmlns="http://www.w3.org/2000/svg" xmlns:xlink="http://www.w3.org/1999/xlink"><g id="Colors"><g><g><path d="M120.04,223c0,0,28.084,115.805,0.631,241.708c0,0-8.52,30.292,16.093,30.292H376.73     c24.613,0,16.093-30.292,16.093-30.292C365.37,338.805,393.454,223,393.454,223" fill="#727A91"/></g></g><g opacity="0.3"><g><path d="M389.594,441.462L132.453,363.35c-1.469,10.868,0.076,22.173-0.872,33.179l262.93,79.87     C398.268,464.558,390.052,453.25,389.594,441.462z" fill="#384169"/></g></g><g><g><polygon fill="#E95A6B" points="120.04,223 130,287 381.867,287 391,223    "/></g></g><g opacity="0.3"><g><g><g><g><path d="M40.679,352.405c-2.753,0-4.99-2.228-5-4.983c-0.009-2.761,2.222-5.007,4.983-5.017l11.726-0.04        c0.006,0,0.012,0,0.018,0c2.753,0,4.99,2.228,5,4.983c0.009,2.761-2.222,5.007-4.983,5.017l-11.726,0.04        C40.691,352.405,40.685,352.405,40.679,352.405z" fill="#384169"/></g></g></g><g><g><g><path d="M105.229,321.029c-0.843,0-1.697-0.214-2.48-0.662c-2.396-1.373-3.226-4.428-1.853-6.824l5.571-9.726        c1.372-2.396,4.427-3.226,6.824-1.854c2.396,1.373,3.226,4.428,1.853,6.824l-5.571,9.726        C108.649,320.126,106.964,321.029,105.229,321.029z" fill="#384169"/></g></g></g><g><g><g><path d="M87.557,316.522c-2.75,0-4.986-2.223-5-4.977l-0.054-11.259c-0.013-2.761,2.215-5.01,4.976-5.023        c0.008,0,0.017,0,0.024,0c2.75,0,4.986,2.223,5,4.977l0.054,11.259c0.013,2.761-2.215,5.01-4.976,5.023        C87.573,316.522,87.565,316.522,87.557,316.522z" fill="#384169"/></g></g></g><g><g><g><path d="M69.836,321.467c-1.723,0-3.398-0.891-4.327-2.486l-5.821-10.006c-1.389-2.387-0.58-5.448,1.808-6.837        c2.386-1.389,5.446-0.579,6.836,1.808l5.821,10.006c1.389,2.387,0.58,5.448-1.808,6.837        C71.555,321.248,70.69,321.467,69.836,321.467z" fill="#384169"/></g></g></g><g><g><g><path d="M57.057,334.445c-0.843,0-1.697-0.214-2.48-0.662l-10.123-5.799c-2.396-1.373-3.226-4.428-1.853-6.824        c1.372-2.396,4.427-3.226,6.824-1.854l10.123,5.799c2.396,1.373,3.226,4.428,1.853,6.824        C60.477,333.542,58.792,334.445,57.057,334.445z" fill="#384169"/></g></g></g></g><g><g><g><g><path d="M40.679,352.345c-2.75,0-4.985-2.222-5-4.975c-0.014-2.761,2.213-5.011,4.974-5.025l10.582-0.055        c0.009,0,0.018,0,0.026,0c2.75,0,4.985,2.222,5,4.975c0.014,2.761-2.213,5.011-4.974,5.025l-10.582,0.055        C40.697,352.345,40.688,352.345,40.679,352.345z" fill="#384169"/></g></g></g><g><g><g><path d="M46.694,376.062c-1.723,0-3.398-0.891-4.327-2.486c-1.389-2.388-0.58-5.448,1.808-6.837l9.328-5.427        c2.386-1.39,5.448-0.579,6.836,1.808c1.389,2.388,0.58,5.448-1.808,6.837l-9.328,5.427        C48.413,375.844,47.548,376.062,46.694,376.062z" fill="#384169"/></g></g></g><g><g><g><path d="M63.869,393.133c-0.843,0-1.697-0.214-2.48-0.662c-2.396-1.373-3.226-4.428-1.853-6.824l5.571-9.726        c1.372-2.396,4.426-3.226,6.824-1.854c2.396,1.373,3.226,4.428,1.853,6.824l-5.571,9.726        C67.289,392.229,65.604,393.133,63.869,393.133z" fill="#384169"/></g></g></g><g><g><g><path d="M87.176,399.17c-2.75,0-4.986-2.223-5-4.977l-0.054-11.258c-0.013-2.761,2.215-5.01,4.976-5.023        c0.008,0,0.017,0,0.024,0c2.75,0,4.986,2.223,5,4.977l0.054,11.258c0.013,2.761-2.215,5.01-4.976,5.023        C87.192,399.17,87.184,399.17,87.176,399.17z" fill="#384169"/></g></g></g></g></g><g><g><path d="M471,223H42c-5.5,0-10-4.5-10-10v-12c0-5.5,4.5-10,10-10h429c5.5,0,10,4.5,10,10v12     C481,218.5,476.5,223,471,223z" fill="#727A91"/></g></g><g opacity="0.3"><g><rect fill="#384169" height="31" width="126" x="353" y="192"/></g></g><g opacity="0.2"><g><rect fill="#FFFFFF" height="16" width="448" x="33" y="191"/></g></g><g opacity="0.3"><g><path d="M321.333,224.333C321.333,224.333,299,350,321,463c0,0,4.641,27-4.679,32H380     c0,0,23.333-1.333,11.667-37.667C380,421,370.908,296,393.454,223L321.333,224.333z" fill="#384169"/></g></g><g opacity="0.3"><g><path d="M124,463c0,0-5,16,19,16s231,0,231,0s21.646,1.415,18.823-14.292c0,0,9.177,30.626-20.823,30.626     s-228,0-228,0S109,503,124,463z" fill="#384169"/></g></g><g opacity="0.1"><g><path d="M166.333,223c0,0,19.333,131,0,240c0,0-6,26.333,10.333,31.667H250c0,0-7-8.667-6-31.667     c3.26-74.989-1-240-1-240H166.333z" fill="#FFFFFF"/></g></g><g opacity="0.1"><g><rect fill="#FFFFFF" height="31" width="89" x="111" y="192"/></g></g><g opacity="0.3"><g><rect fill="#384169" height="17" width="268" x="123" y="223"/></g></g><g id="XMLID_45_"><g><g><g><path d="M220.152,118c4.761,26,3.916,46.95,3.547,73h-24.974c-1.19-41-4.047-65.19-15.475-94       c-14.284-36-32.14-55-48.805-57c-13.725-1.65-15.165,7.58-15.284,8.65c0.167-13.96,4.416-28.4,19.332-32.65       c31.664-9,51.031,22.95,59.042,37C209.272,73.58,216.093,95.86,220.152,118z" fill="#F4F5F7"/></g></g><g opacity="0.7"><g><path d="M119.25,45.75c0,0,4.75-15.75,28.75-14.75s50,25,56,37c0,0-15-49-54-55       C115,9,119.25,45.75,119.25,45.75z" fill="#FFFFFF"/></g></g><g><g><path d="M198.726,191h-30.95c-9.523-56-36.961-78.95-46.424-122c-1.214-5.54-2.286-12.86-2.19-20.32       c0-0.01,0-0.02,0-0.03c0.119-1.07,1.559-10.3,15.284-8.65c16.665,2,34.521,21,48.805,57       C194.679,125.81,197.535,150,198.726,191z" fill="#FFBDBD"/></g></g></g><g><g><g><path d="M223.7,196h-55.923c-2.438,0-4.521-1.758-4.929-4.162c-5.129-30.161-15.556-50.434-25.639-70.037       c-8.415-16.361-16.363-31.814-20.74-51.728c-1.111-5.071-2.412-12.899-2.307-21.426c0-0.019,0-0.038,0-0.057       c0.238-19.966,8.393-33.248,22.961-37.399c36.425-10.348,57.749,27.043,64.756,39.332c10.894,19.103,18.48,40.88,23.191,66.575       c4.426,24.164,4.105,44.067,3.735,67.114c-0.036,2.25-0.073,4.533-0.106,6.858C228.661,193.805,226.434,196,223.7,196z        M171.956,186h46.819c0.011-0.652,0.021-1.302,0.031-1.948c0.362-22.516,0.675-41.961-3.572-65.151       c-4.504-24.568-11.714-45.314-22.042-63.424c-10.497-18.407-27.445-42.033-53.332-34.667       c-10.224,2.913-15.507,12.291-15.699,27.872c0,0.021,0,0.041,0,0.062c-0.102,7.991,1.256,15.451,2.075,19.187       c4.097,18.639,11.757,33.531,19.866,49.297C156.068,136.605,166.359,156.613,171.956,186z" fill="#384169"/></g></g><g><g><path d="M198.723,196c-2.694,0-4.917-2.145-4.995-4.854c-1.149-39.603-3.706-63.515-15.124-92.302       c-18.241-45.971-37.374-52.994-44.753-53.879c-8.308-1.003-9.536,2.886-9.713,4.19c-0.009,0.097-0.021,0.192-0.035,0.287       c-0.337,2.434-2.426,4.308-4.953,4.308c-2.761,0-5-2.238-5-5c0-0.181,0.012-0.377,0.035-0.572       c0.002-0.027,0.005-0.055,0.008-0.08c0.153-1.378,1-6.148,5.453-9.678c3.807-3.016,8.987-4.155,15.397-3.384       c19.637,2.356,38.408,23.707,52.856,60.12c11.9,30.001,14.666,55.766,15.825,95.698c0.08,2.761-2.093,5.063-4.853,5.144       C198.821,195.999,198.772,196,198.723,196z M124.025,49.84c-0.001,0.003-0.001,0.006-0.002,0.009       C124.024,49.846,124.024,49.843,124.025,49.84z M124.027,49.831c0,0.002-0.001,0.005-0.002,0.007       C124.026,49.836,124.027,49.833,124.027,49.831z M124.029,49.822c0,0.002-0.001,0.004-0.001,0.006       C124.028,49.826,124.029,49.824,124.029,49.822z M124.031,49.814c0,0.001,0,0.002-0.001,0.003       C124.031,49.816,124.031,49.815,124.031,49.814z M124.033,49.808L124.033,49.808L124.033,49.808z" fill="#384169"/></g></g></g></g><g opacity="0.1"><g><path d="M135,43c0,0,28,32,41,85c7,31,7,64,7,64l15.609-4.795C198.609,187.205,200,61,135,43z" fill="#384169"/></g></g><g opacity="0.1"><g><path d="M177.047,26c0,0,34.453,22,34.453,164.5H224C224,190.5,234.094,77,177.047,26z" fill="#384169"/></g></g><g id="XMLID_46_"><g><g><g><path d="M294.625,118c-4.761,26-3.916,46.95-3.547,73h24.974c1.19-41,4.047-65.19,15.475-94       c14.284-36,32.14-55,48.805-57c13.725-1.65,15.165,7.58,15.284,8.65c-0.167-13.96-4.416-28.4-19.332-32.65       c-31.664-9-51.031,22.95-59.042,37C305.505,73.58,298.684,95.86,294.625,118z" fill="#F4F5F7"/></g></g><g opacity="0.7"><g><path d="M395.527,45.75c0,0-4.75-15.75-28.75-14.75s-50,25-56,37c0,0,15-49,54-55       C399.777,9,395.527,45.75,395.527,45.75z" fill="#FFFFFF"/></g></g><g><g><path d="M316.052,191h30.95c9.523-56,36.961-78.95,46.424-122c1.214-5.54,2.286-12.86,2.19-20.32       c0-0.01,0-0.02,0-0.03c-0.119-1.07-1.559-10.3-15.284-8.65c-16.665,2-34.521,21-48.805,57       C320.099,125.81,317.242,150,316.052,191z" fill="#FFBDBD"/></g></g></g><g><g><g><path d="M347.001,196h-55.923c-2.734,0-4.961-2.195-5-4.929c-0.033-2.325-0.07-4.608-0.106-6.858       c-0.371-23.047-0.691-42.95,3.735-67.113c4.711-25.696,12.297-47.474,23.191-66.576c7.007-12.289,28.336-49.682,64.753-39.333       c14.571,4.152,22.726,17.435,22.964,37.4c0,0.019,0,0.038,0,0.057c0.105,8.526-1.195,16.354-2.306,21.423       c-4.378,19.916-12.327,35.369-20.741,51.73c-10.083,19.604-20.51,39.876-25.639,70.037       C351.521,194.242,349.439,196,347.001,196z M296.002,186h46.819c5.596-29.387,15.887-49.395,25.854-68.773       c8.109-15.766,15.769-30.658,19.867-49.3c0.818-3.732,2.176-11.192,2.074-19.184c0-0.021,0-0.041,0-0.062       c-0.192-15.581-5.475-24.959-15.702-27.873c-25.885-7.354-42.833,16.262-53.329,34.668       c-10.328,18.109-17.538,38.855-22.042,63.425c-4.247,23.189-3.934,42.635-3.572,65.15       C295.981,184.698,295.992,185.348,296.002,186z" fill="#384169"/></g></g><g><g><path d="M316.055,196c-0.049,0-0.099-0.001-0.148-0.002c-2.76-0.08-4.933-2.383-4.853-5.144       c1.478-50.896,6.488-72.16,15.825-95.698c14.448-36.413,33.22-57.764,52.857-60.121c6.409-0.768,11.59,0.369,15.396,3.385       c4.403,3.489,5.28,8.192,5.448,9.63c0.032,0.234,0.048,0.466,0.048,0.7c0,2.762-2.239,5-5,5c-2.5,0-4.57-1.834-4.941-4.229       c-0.023-0.133-0.04-0.268-0.052-0.402c-0.193-1.336-1.47-5.141-9.706-4.154c-7.381,0.886-26.514,7.909-44.755,53.88       c-11.418,28.787-13.975,52.699-15.124,92.302C320.971,193.855,318.749,196,316.055,196z" fill="#384169"/></g></g></g></g><g opacity="0.1"><g><path d="M379.777,43c0,0-28,32-41,85c-7,31-7,64-7,64l-15.609-4.795C316.168,187.205,314.777,61,379.777,43z" fill="#384169"/></g></g><g opacity="0.1"><g><path d="M337.73,26c0,0-34.453,22-34.453,164.5h-12.5C290.777,190.5,280.684,77,337.73,26z" fill="#384169"/></g></g></g><g id="Lines"><g opacity="0.5"><g><g><path d="M268.371,55.599c-1.28,0-2.559-0.488-3.536-1.465c-1.953-1.952-1.953-5.118,0-7.07l9.291-9.291      c1.952-1.953,5.118-1.953,7.071,0c1.953,1.952,1.953,5.118,0,7.07l-9.291,9.291C270.931,55.11,269.651,55.599,268.371,55.599z" fill="#384169"/></g></g><g><g><path d="M236.662,87.284c-1.28,0-2.559-0.488-3.536-1.465c-1.953-1.952-1.953-5.118,0-7.07l9.291-9.29      c1.954-1.953,5.119-1.952,7.071,0c1.953,1.952,1.953,5.118,0,7.07l-9.291,9.29C239.221,86.796,237.941,87.284,236.662,87.284z" fill="#384169"/></g></g><g><g><path d="M277.65,87.296c-1.28,0-2.559-0.488-3.536-1.465l-9.291-9.29c-1.953-1.952-1.953-5.118,0-7.07      c1.952-1.953,5.118-1.953,7.071,0l9.291,9.29c1.953,1.952,1.953,5.118,0,7.07C280.209,86.808,278.93,87.296,277.65,87.296z" fill="#384169"/></g></g><g><g><path d="M245.964,55.587c-1.28,0-2.559-0.488-3.536-1.465l-9.291-9.291c-1.953-1.952-1.953-5.118,0-7.07      c1.954-1.953,5.119-1.952,7.071,0l9.291,9.291c1.953,1.952,1.953,5.118,0,7.07C248.523,55.099,247.243,55.587,245.964,55.587z" fill="#384169"/></g></g><g><g><path d="M250.767,61.823c0-3.575,2.896-6.473,6.473-6.473c3.574,0,6.473,2.898,6.473,6.473      c0,3.575-2.898,6.474-6.473,6.474C253.664,68.296,250.767,65.397,250.767,61.823z" fill="#384169"/></g></g></g><g opacity="0.5"><g><g><path d="M50.371,449.599c-1.28,0-2.559-0.488-3.536-1.465c-1.953-1.952-1.953-5.118,0-7.07l9.291-9.291      c1.952-1.953,5.118-1.953,7.071,0c1.953,1.952,1.953,5.118,0,7.07l-9.291,9.291C52.931,449.11,51.651,449.599,50.371,449.599z" fill="#384169"/></g></g><g><g><path d="M18.662,481.284c-1.28,0-2.559-0.488-3.536-1.465c-1.953-1.952-1.953-5.118,0-7.07l9.291-9.29      c1.954-1.953,5.119-1.952,7.071,0c1.953,1.952,1.953,5.118,0,7.07l-9.291,9.29C21.221,480.796,19.941,481.284,18.662,481.284z" fill="#384169"/></g></g><g><g><path d="M59.65,481.296c-1.28,0-2.559-0.488-3.536-1.465l-9.291-9.29c-1.953-1.952-1.953-5.118,0-7.07      c1.952-1.953,5.118-1.953,7.071,0l9.291,9.29c1.953,1.952,1.953,5.118,0,7.07C62.209,480.808,60.93,481.296,59.65,481.296z" fill="#384169"/></g></g><g><g><path d="M27.964,449.587c-1.28,0-2.559-0.488-3.536-1.465l-9.291-9.291c-1.953-1.952-1.953-5.118,0-7.07      c1.954-1.953,5.119-1.952,7.071,0l9.291,9.291c1.953,1.952,1.953,5.118,0,7.07C30.523,449.099,29.243,449.587,27.964,449.587z" fill="#384169"/></g></g><g><g><path d="M32.767,455.823c0-3.575,2.896-6.473,6.473-6.473c3.574,0,6.473,2.898,6.473,6.473      c0,3.575-2.898,6.474-6.473,6.474C35.664,462.296,32.767,459.397,32.767,455.823z" fill="#384169"/></g></g></g><g opacity="0.5"><g><path d="M459.838,167.001c-2.288,0-4.352-1.58-4.874-3.906c-0.605-2.694,1.089-5.369,3.784-5.974     c17.495-3.926,29.403-15.54,31.854-31.068c1.314-8.325-0.576-17.367-5.056-25.424c-4.417,4.525-9.953,8.062-16.28,10.116     c-15.313,4.971-35.702-0.272-41.643-16.003c-2.098-5.556-1.725-11.245,1.051-16.02c3.08-5.3,8.745-8.955,15.541-10.028     c14.327-2.26,29.081,2.98,40.485,14.383c0.071,0.071,0.143,0.144,0.214,0.215c1.525-3.994,2.176-8.307,1.745-12.625     c-2.517-25.161-27.211-30.55-28.261-30.768c-2.698-0.558-4.445-3.194-3.896-5.895c0.549-2.7,3.172-4.447,5.872-3.908     c11.392,2.278,33.625,13.481,36.234,39.575c0.789,7.885-0.957,15.618-4.641,22.307c7.182,10.863,10.385,23.772,8.512,35.633     c-3.115,19.73-17.897,34.41-39.542,39.268C460.569,166.961,460.201,167.001,459.838,167.001z M450.773,78.181     c-1.67,0-3.339,0.129-4.998,0.391c-3.755,0.594-6.917,2.528-8.456,5.177c-1.271,2.186-1.385,4.696-0.341,7.461     c3.103,8.217,15.856,14.357,29.199,10.024c5.299-1.72,9.902-4.924,13.405-9.011c-0.628-0.708-1.28-1.399-1.954-2.074     C469.872,82.392,460.309,78.181,450.773,78.181z" fill="#384169"/></g></g><g><g><g><path d="M415.424,86.087c-2.339,2.704-6.425,3.001-9.13,0.662c-2.703-2.338-3-6.425-0.661-9.13      c2.338-2.703,6.426-3,9.129-0.662C417.467,79.297,417.762,83.384,415.424,86.087z" fill="#384169"/></g></g></g><g><g><g><path d="M108.954,26.299c-1.382,3.297-5.173,4.85-8.471,3.468c-3.296-1.382-4.849-5.174-3.467-8.471      c1.382-3.296,5.175-4.849,8.471-3.468C108.784,19.21,110.335,23.003,108.954,26.299z" fill="#384169"/></g></g></g><g><g><path d="M471,228H42c-8.271,0-15-6.729-15-15v-12c0-8.271,6.729-15,15-15h429c8.271,0,15,6.729,15,15v12     C486,221.271,479.271,228,471,228z M42,196c-2.757,0-5,2.243-5,5v12c0,2.757,2.243,5,5,5h429c2.757,0,5-2.243,5-5v-12     c0-2.757-2.243-5-5-5H42z" fill="#384169"/></g></g><g><g><path d="M376.73,500H136.764c-9.828,0-15.112-4.251-17.813-7.817c-3.499-4.617-5.06-10.947-4.641-18.813     c0.265-4.969,1.271-8.98,1.502-9.847c26.855-123.31-0.353-238.197-0.631-239.344c-0.65-2.684,0.998-5.387,3.681-6.038     c2.682-0.646,5.386,0.998,6.038,3.681c0.29,1.198,7.155,29.848,10.735,74.419c3.302,41.111,4.234,103.896-10.078,169.533     c-0.021,0.097-0.045,0.192-0.072,0.288c-1.026,3.703-2.771,14.551,1.448,20.098c1.966,2.584,5.182,3.841,9.832,3.841H376.73     c4.658,0,7.877-1.261,9.842-3.855c4.218-5.568,2.405-16.643,1.437-20.083c-0.026-0.095-0.051-0.191-0.072-0.288     c-14.312-65.638-13.379-128.422-10.078-169.533c3.58-44.571,10.445-73.221,10.735-74.419c0.651-2.683,3.354-4.328,6.037-3.681     c2.684,0.65,4.332,3.354,3.682,6.037c-0.278,1.147-27.459,116.132-0.635,239.33c0.673,2.466,4.617,18.441-3.135,28.675     C391.842,495.749,386.559,500,376.73,500z M120.671,464.708h0.01H120.671z" fill="#384169"/></g></g><g><g><g><polygon fill="#FFD2A6" points="461.142,313.858 497,328 461.142,342.142 447,378 432.858,342.142 397,328 432.858,313.858       447,278     "/></g></g><g opacity="0.7"><g><path d="M447,285v39.091c0,0,0,3.909-4,3.909s-43.464,0-43.464,0L433,313.341L447,285z" fill="#FFFFFF"/></g></g><g><g><path d="M447,383c-2.053,0-3.898-1.256-4.651-3.165l-13.345-33.838l-33.838-13.346      c-1.91-0.754-3.166-2.598-3.166-4.651s1.255-3.897,3.166-4.651l33.838-13.346l13.345-33.838      c0.753-1.909,2.598-3.165,4.651-3.165s3.898,1.256,4.651,3.165l13.345,33.838l33.838,13.346c1.91,0.754,3.166,2.598,3.166,4.651      s-1.255,3.897-3.166,4.651l-33.838,13.346l-13.345,33.838C450.898,381.744,449.053,383,447,383z M410.627,328l24.065,9.491      c1.289,0.508,2.309,1.528,2.817,2.816L447,364.372l9.491-24.064c0.508-1.288,1.528-2.309,2.817-2.816L483.373,328l-24.065-9.491      c-1.289-0.508-2.309-1.528-2.817-2.816L447,291.628l-9.491,24.064c-0.508,1.288-1.528,2.309-2.817,2.816L410.627,328z" fill="#384169"/></g></g></g><g><g><g><polygon fill="#FFD2A6" points="78.142,113.858 114,128 78.142,142.142 64,178 49.858,142.142 14,128 49.858,113.858 64,78           "/></g></g><g opacity="0.7"><g><path d="M64,85v39.091c0,0,0,3.909-4,3.909s-43.464,0-43.464,0L50,113.341L64,85z" fill="#FFFFFF"/></g></g><g><g><path d="M64,183c-2.053,0-3.898-1.256-4.651-3.165l-13.345-33.838l-33.838-13.346      C10.255,131.897,9,130.054,9,128s1.255-3.897,3.166-4.651l33.838-13.346l13.345-33.838C60.102,74.256,61.947,73,64,73      s3.898,1.256,4.651,3.165l13.345,33.838l33.838,13.346c1.91,0.754,3.166,2.598,3.166,4.651s-1.255,3.897-3.166,4.651      l-33.838,13.346l-13.345,33.838C67.898,181.744,66.053,183,64,183z M27.627,128l24.065,9.491      c1.289,0.508,2.309,1.528,2.817,2.816L64,164.372l9.491-24.064c0.508-1.288,1.528-2.309,2.817-2.816L100.373,128l-24.065-9.491      c-1.289-0.508-2.309-1.528-2.817-2.816L64,91.628l-9.491,24.064c-0.508,1.288-1.528,2.309-2.817,2.816L27.627,128z" fill="#384169"/></g></g></g><g><g><path d="M167.771,196.001c-2.394,0-4.509-1.724-4.923-4.163c-5.129-30.163-15.556-50.437-25.639-70.041     c-8.414-16.359-16.361-31.812-20.74-51.723c-5.304-24.119-2.662-52.254,20.659-58.883c36.408-10.346,57.741,27.043,64.751,39.331     C212.78,69.63,220.366,91.407,225.07,117.1c4.424,24.155,4.104,44.052,3.732,67.09c-0.037,2.258-0.073,4.549-0.106,6.882     c-0.039,2.736-2.27,4.929-4.998,4.929c-0.024,0-0.048,0-0.072-0.001c-2.761-0.039-4.968-2.309-4.929-5.07     c0.033-2.339,0.07-4.637,0.107-6.9c0.363-22.508,0.676-41.945-3.569-65.128c-4.499-24.564-11.708-45.311-22.042-63.423     c-10.501-18.406-27.454-42.026-53.332-34.667c-21.487,6.107-15.121,40.319-13.626,47.115c4.1,18.642,11.758,33.532,19.866,49.297     c10.43,20.281,21.216,41.252,26.604,72.939c0.463,2.722-1.369,5.304-4.091,5.768     C168.331,195.978,168.049,196.001,167.771,196.001z" fill="#384169"/></g></g><g><g><path d="M198.723,196c-2.694,0-4.917-2.145-4.995-4.854c-1.149-39.61-3.706-63.524-15.124-92.302     c-18.241-45.971-37.374-52.994-44.753-53.879c-8.421-1.019-9.569,2.99-9.72,4.241l0.01-0.115l-9.977-0.682     c0.041-0.593,0.531-5.897,5.233-9.791c3.821-3.164,9.084-4.367,15.645-3.583c19.638,2.357,38.409,23.708,52.857,60.121     c11.9,29.99,14.666,55.758,15.825,95.698c0.08,2.761-2.093,5.063-4.853,5.144C198.821,195.999,198.772,196,198.723,196z" fill="#384169"/></g></g><g><g><path d="M347.007,196.001c-0.278,0-0.56-0.023-0.844-0.071c-2.722-0.464-4.554-3.046-4.091-5.768     c5.389-31.688,16.174-52.658,26.604-72.939c8.108-15.765,15.767-30.655,19.866-49.297c1.494-6.796,7.861-41.008-13.626-47.115     c-25.877-7.354-42.831,16.262-53.332,34.667c-10.333,18.112-17.543,38.858-22.041,63.423c-4.246,23.183-3.933,42.62-3.57,65.128     c0.037,2.264,0.074,4.562,0.107,6.9c0.039,2.762-2.167,5.031-4.929,5.07C291.128,196,291.104,196,291.08,196     c-2.729,0-4.959-2.192-4.998-4.929c-0.033-2.333-0.07-4.624-0.106-6.882c-0.372-23.038-0.692-42.935,3.732-67.09     c4.705-25.692,12.291-47.47,23.192-66.577c7.01-12.288,28.341-49.677,64.751-39.331c23.32,6.629,25.962,34.764,20.659,58.883     c-4.379,19.91-12.326,35.363-20.74,51.723c-10.083,19.604-20.51,39.878-25.639,70.041     C351.516,194.276,349.4,196.001,347.007,196.001z" fill="#384169"/></g></g><g><g><path d="M316.055,196c-0.049,0-0.099-0.001-0.148-0.002c-2.76-0.08-4.933-2.383-4.853-5.144     c1.478-50.907,6.489-72.168,15.825-95.698c14.448-36.413,33.219-57.764,52.857-60.121c6.558-0.787,11.823,0.419,15.645,3.583     c4.702,3.894,5.193,9.198,5.233,9.791l-9.977,0.682l0.01,0.115c-0.151-1.251-1.3-5.265-9.72-4.241     c-7.379,0.885-26.513,7.908-44.753,53.879c-11.418,28.777-13.975,52.691-15.124,92.302C320.971,193.855,318.749,196,316.055,196z     " fill="#384169"/></g></g><g><g><path d="M414.904,69.374c-0.414,0-0.834-0.052-1.253-0.16c-2.674-0.689-4.282-3.417-3.591-6.091     c7.226-27.989-7.006-42.984-7.616-43.609c-1.92-1.968-1.902-5.128,0.054-7.06c1.955-1.933,5.094-1.936,7.038,0.011     c0.776,0.776,18.919,19.407,10.206,53.158C419.16,67.877,417.129,69.374,414.904,69.374z" fill="#384169"/></g></g><g><g><path d="M113.777,113.309c-1.537,0-3.053-0.705-4.033-2.039C84.26,76.598,92.166,43.066,92.515,41.656     c0.664-2.681,3.375-4.315,6.055-3.652c2.676,0.662,4.31,3.364,3.656,6.04l0,0c-0.073,0.303-7.024,30.555,15.577,61.304     c1.635,2.225,1.158,5.354-1.067,6.989C115.843,112.993,114.806,113.309,113.777,113.309z" fill="#384169"/></g></g><g><g><path d="M383,292H130c-2.761,0-5-2.238-5-5s2.239-5,5-5h253c2.761,0,5,2.238,5,5S385.761,292,383,292z" fill="#384169"/></g></g><g><g><g><path d="M470.395,480.45L84.261,363.155c-5.26-1.606-8.25-7.224-6.644-12.484l3.504-11.477      c1.606-5.26,7.224-8.25,12.484-6.644l386.134,117.296c5.26,1.606,8.25,7.224,6.644,12.484l-3.504,11.477      C481.273,479.067,475.655,482.057,470.395,480.45z" fill="#CE695B"/></g></g><g opacity="0.3"><g><path d="M411,468.001c-0.541,0-1.091-0.088-1.63-0.274c-2.611-0.899-3.997-3.746-3.097-6.356l10-29      c0.901-2.611,3.75-3.996,6.357-3.097c2.611,0.899,3.997,3.746,3.097,6.356l-10,29C415.013,466.701,413.074,468.001,411,468.001z      " fill="#384169"/></g></g><g><g><path d="M172.251,390.021l-87.99-26.866c-5.26-1.606-8.25-7.224-6.644-12.484l3.504-11.477      c1.606-5.26,7.224-8.25,12.484-6.644l87.99,26.866c5.26,1.606,8.25,7.224,6.644,12.484l-3.504,11.477      C183.129,388.637,177.511,391.627,172.251,390.021z" fill="#FFD2A6"/></g></g><g opacity="0.1"><g><path d="M79.369,344.932l-4.672,15.303l107.557,32.84c1.142-5.202,2.742-10.543,4.234-15.436L79.369,344.932z" fill="#384169"/></g></g><g opacity="0.25"><g><path d="M484.631,468.068l-298.143-90.43c-1.493,4.894-3.092,10.235-4.234,15.436l297.705,90.296      L484.631,468.068z" fill="#384169"/></g></g><g opacity="0.25"><g><path d="M472.39,449.676l-7.636,26.984c4.893,1.494,10.226,3.119,15.315,4.633l7.624-26.944L472.39,449.676z" fill="#384169"/></g></g><g opacity="0.25"><g><path d="M84.39,331.676l-7.636,26.984c4.893,1.494,10.226,3.119,15.315,4.633l7.624-26.944L84.39,331.676z" fill="#FFFFFF"/></g></g><g><g><path d="M473.312,485.89c-1.466,0-2.938-0.218-4.378-0.657L82.808,367.938c-3.828-1.168-6.972-3.763-8.857-7.307      c-1.886-3.544-2.282-7.601-1.116-11.422l3.504-11.477c1.167-3.821,3.761-6.965,7.305-8.851      c3.544-1.887,7.601-2.282,11.422-1.115l386.126,117.294c3.828,1.168,6.972,3.763,8.857,7.307      c1.886,3.544,2.282,7.601,1.116,11.422l-3.504,11.477c-1.167,3.821-3.761,6.965-7.305,8.851      C478.147,485.293,475.738,485.89,473.312,485.89z M90.699,337.116c-0.811,0-1.616,0.2-2.357,0.595      c-1.186,0.631-2.052,1.676-2.438,2.942l-3.504,11.477c-0.387,1.267-0.252,2.618,0.379,3.804      c0.631,1.186,1.676,2.052,2.942,2.438l386.127,117.294c0.002,0.001,0.005,0.002,0.007,0.002      c1.267,0.389,2.618,0.253,3.803-0.379c1.186-0.631,2.052-1.676,2.438-2.942l3.504-11.477c0.387-1.267,0.252-2.618-0.379-3.804      c-0.631-1.186-1.676-2.052-2.942-2.438L92.152,337.334C91.674,337.188,91.186,337.116,90.699,337.116z" fill="#384169"/></g></g><g><g><path d="M181.817,397.941c-0.484,0-0.976-0.07-1.462-0.219c-2.641-0.807-4.128-3.602-3.322-6.242l9.052-29.648      c0.807-2.641,3.605-4.123,6.242-3.322c2.641,0.807,4.128,3.602,3.322,6.242l-9.052,29.648      C185.939,396.555,183.958,397.941,181.817,397.941z" fill="#384169"/></g></g></g></g></svg>