<?xml version="1.0" ?><!DOCTYPE svg  PUBLIC '-//W3C//DTD SVG 1.1//EN'  'http://www.w3.org/Graphics/SVG/1.1/DTD/svg11.dtd'><svg enable-background="new 0 0 512 512" height="512px" version="1.1" viewBox="0 0 512 512" width="512px" xml:space="preserve" xmlns="http://www.w3.org/2000/svg" xmlns:xlink="http://www.w3.org/1999/xlink"><g id="Colors"><g><g><polygon fill="#F2F2F2" points="462.638,409.013 135.995,433.56 84.784,399.582 42.348,358.885 22.68,82.35 437.603,53.16    "/></g></g><g><g><polyline fill="#D9D9DD" points="42.348,361.918 131.001,350.969 135.957,432.033    "/></g></g><g><g><polygon fill="#D9D9DD" points="37,305.52 238,402.806 238,343.465 37,260.77    "/></g></g><g><g><path d="M344,422c37-6,73-6,111-11c3,0,8-1,8-3c-1.647-10.295-2.927-20.532-3.948-30.727l-59.816-31.508     l54.778-83.519c-0.678-23.008-1.76-46.046-4.325-69.267L311.477,325.907l-15.363,97.175C312.03,423.77,327.787,424.026,344,422z" fill="#D9D9DD"/></g></g><g><g><path d="M401.732,452.216c-2.372,4.838-7.638,6.96-11.838,4.901L23.328,277.329     c-4.201-2.061-5.746-7.52-3.373-12.362l38.595-78.689c2.374-4.84,7.704-7.093,11.903-5.033l358.241,175.701     c4.2,2.062,14.007,11.739,11.634,16.576L401.732,452.216z" fill="#EFBC86"/></g></g><g><g><path d="M398.968,454.764c-1.714,3.496-5.941,4.941-9.438,3.227L20.415,276.954     c-3.497-1.714-4.94-5.94-3.227-9.437l0.073-0.147c1.716-3.495,5.939-4.94,9.437-3.228l369.115,181.035     c3.498,1.717,4.941,5.941,3.227,9.438L398.968,454.764z" fill="#DDA673"/></g></g><g><g><g><g><rect fill="#C99163" height="38.527" transform="matrix(0.8979 0.4402 -0.4402 0.8979 96.2886 -10.165)" width="9.274" x="65.422" y="183.244"/></g></g><g><g><rect fill="#C99163" height="26.398" transform="matrix(0.8978 0.4404 -0.4404 0.8978 99.7171 -18.6411)" width="9.276" x="85.387" y="192.346"/></g></g><g><g><rect fill="#C99163" height="26.4" transform="matrix(0.8978 0.4404 -0.4404 0.8978 105.4229 -25.6404)" width="9.274" x="103.324" y="201.141"/></g></g><g><g><rect fill="#C99163" height="26.398" transform="matrix(0.8979 0.4403 -0.4403 0.8979 110.9018 -32.3888)" width="9.273" x="120.619" y="209.625"/></g></g><g><g><rect fill="#C99163" height="26.397" transform="matrix(0.8978 0.4405 -0.4405 0.8978 116.6588 -39.3924)" width="9.274" x="138.555" y="218.423"/></g></g><g><g><rect fill="#C99163" height="38.527" transform="matrix(0.8978 0.4405 -0.4405 0.8978 124.2882 -44.41)" width="9.274" x="153.179" y="226.285"/></g></g></g><g><g><g><rect fill="#C99163" height="26.398" transform="matrix(0.8978 0.4403 -0.4403 0.8978 127.6246 -52.8866)" width="9.275" x="173.145" y="235.387"/></g></g><g><g><rect fill="#C99163" height="26.396" transform="matrix(0.8978 0.4404 -0.4404 0.8978 133.3611 -59.8908)" width="9.275" x="191.079" y="244.186"/></g></g><g><g><rect fill="#C99163" height="26.397" transform="matrix(0.8978 0.4404 -0.4404 0.8978 138.8484 -66.6383)" width="9.274" x="208.377" y="252.667"/></g></g><g><g><rect fill="#C99163" height="26.398" transform="matrix(0.8978 0.4403 -0.4403 0.8978 144.539 -73.6342)" width="9.275" x="226.313" y="261.464"/></g></g><g><g><rect fill="#C99163" height="38.527" transform="matrix(0.8978 0.4403 -0.4403 0.8978 152.1661 -78.6512)" width="9.275" x="240.938" y="269.327"/></g></g></g><g><g><g><rect fill="#C99163" height="26.399" transform="matrix(0.8979 0.4402 -0.4402 0.8979 155.4899 -87.117)" width="9.275" x="260.903" y="278.428"/></g></g><g><g><rect fill="#C99163" height="26.398" transform="matrix(0.8979 0.4403 -0.4403 0.8979 161.2314 -94.1254)" width="9.276" x="278.838" y="287.226"/></g></g><g><g><rect fill="#C99163" height="26.399" transform="matrix(0.8978 0.4404 -0.4404 0.8978 166.7904 -100.8932)" width="9.275" x="296.134" y="295.707"/></g></g><g><g><rect fill="#C99163" height="26.396" transform="matrix(0.8977 0.4406 -0.4406 0.8977 172.5779 -107.9203)" width="9.274" x="314.07" y="304.507"/></g></g><g><g><rect fill="#C99163" height="38.525" transform="matrix(0.8978 0.4404 -0.4404 0.8978 180.1267 -112.9109)" width="9.275" x="328.695" y="312.369"/></g></g></g><g><g><g><rect fill="#C99163" height="26.396" transform="matrix(0.8978 0.4405 -0.4405 0.8978 183.5491 -121.4094)" width="9.276" x="348.66" y="321.474"/></g></g><g><g><rect fill="#C99163" height="26.398" transform="matrix(0.8979 0.4402 -0.4402 0.8979 189.101 -128.3513)" width="9.275" x="366.597" y="330.266"/></g></g><g><g><rect fill="#C99163" height="26.398" transform="matrix(0.8978 0.4404 -0.4404 0.8978 194.693 -135.1347)" width="9.274" x="383.892" y="338.75"/></g></g><g><g><rect fill="#C99163" height="26.397" transform="matrix(0.8978 0.4404 -0.4404 0.8978 200.4239 -142.1441)" width="9.275" x="401.827" y="347.547"/></g></g><g><g><rect fill="#C99163" height="38.528" transform="matrix(0.8979 0.4403 -0.4403 0.8979 207.9778 -147.1319)" width="9.273" x="416.454" y="355.408"/></g></g></g></g><g><g><path d="M239.988,361.918l-8.227,96.421l84.457-43.69C316.219,414.648,304.873,369.796,239.988,361.918" fill="#FFDBB8"/></g></g><g><g><polygon fill="#EDC29F" points="295.638,394.482 234.161,453.645 316.219,414.648    "/></g></g><g><g><polygon fill="#FFE7D4" points="265.689,373.765 234.794,456.771 238.843,361.125    "/></g></g><g><g><polygon fill="#D36A67" points="474.85,182.873 399.194,130.537 415.647,106.752 429.827,100.036 492.158,143.151      492.791,156.938    "/></g></g><g><g><rect fill="#E6E6E6" height="27.878" transform="matrix(0.8224 0.5689 -0.5689 0.8224 172.1976 -214.4983)" width="93.387" x="382.973" y="154.626"/></g></g><g><g><rect fill="#CCCCCC" height="27.875" transform="matrix(0.8224 0.5689 -0.5689 0.8224 180.5567 -221.0243)" width="36.938" x="425.813" y="164.739"/></g></g><g><g><rect fill="#BF5656" height="40.422" transform="matrix(0.8224 0.5689 -0.5689 0.8224 172.4284 -240.5018)" width="34.845" x="454.024" y="135.731"/></g></g><g><g><rect fill="#FFFFFF" height="27.877" transform="matrix(0.8224 0.5689 -0.5689 0.8224 156.0612 -202.4222)" width="22.998" x="390.766" y="134.825"/></g></g><g><g><rect fill="#B3B3B3" height="27.878" transform="matrix(0.8224 0.5689 -0.5689 0.8224 189.2029 -227.7816)" width="20.908" x="449.017" y="175.243"/></g></g><g><g><rect fill="#F7C90B" height="252.984" transform="matrix(0.8224 0.5689 -0.5689 0.8224 234.5063 -156.9743)" width="47.39" x="344.996" y="170.648"/></g></g><g><g><rect fill="#FFE67B" height="252.983" transform="matrix(0.8224 0.5689 -0.5689 0.8224 213.2449 -140.3607)" width="47.391" x="307.74" y="144.879"/></g></g><g><g><rect fill="#FFD815" height="252.983" transform="matrix(0.8224 0.5689 -0.5689 0.8224 223.7067 -148.5387)" width="34.846" x="332.354" y="157.565"/></g></g><g><g><g><path d="M308.152,276.345c-3.571-2.471-4.303-7.257-1.831-10.828l63.525-91.833      c2.471-3.571,7.208-4.577,10.777-2.107c3.573,2.472,4.302,7.259,1.832,10.828l-63.525,91.836      C316.461,277.81,311.727,278.815,308.152,276.345z" fill="#FFF7D4"/></g></g></g><g><g><circle cx="298.997" cy="289.98" fill="#FFF7D4" r="8.257"/></g></g><g><g><circle cx="426.618" cy="110.192" fill="#F28383" r="8.257"/></g></g></g><g id="Lines"><g><g><g><g><path d="M119.523,131.047c-0.361-0.672-0.572-1.439-0.588-2.254c-0.058-2.758,2.133-5.038,4.891-5.096       l0.738-0.013c2.761-0.044,5.029,2.159,5.071,4.918c0.042,2.757-2.159,5.028-4.917,5.069l-0.688,0.012       C122.088,133.725,120.381,132.648,119.523,131.047z M141.34,131.245c-0.405-0.757-0.62-1.628-0.586-2.548       c0.106-2.756,2.427-4.903,5.183-4.798l0.733,0.029c2.757,0.119,4.896,2.445,4.778,5.202c-0.118,2.756-2.445,4.895-5.202,4.778       l-0.693-0.028C143.717,133.81,142.149,132.756,141.34,131.245z M163.106,132.731c-0.451-0.841-0.666-1.82-0.565-2.842       c0.27-2.745,2.712-4.752,5.457-4.483l0.732,0.072c2.743,0.28,4.739,2.73,4.46,5.478c-0.28,2.743-2.732,4.74-5.477,4.46       l-0.69-0.068C165.301,135.179,163.868,134.152,163.106,132.731z M184.749,135.496c-0.497-0.926-0.706-2.015-0.53-3.133       c0.429-2.725,2.986-4.584,5.711-4.155l0.724,0.116c2.724,0.438,4.574,3.004,4.132,5.727c-0.44,2.723-3.004,4.572-5.728,4.133       l-0.684-0.109C186.768,137.821,185.462,136.828,184.749,135.496z M206.189,139.522c-0.542-1.012-0.74-2.212-0.477-3.421       c0.587-2.695,3.248-4.402,5.944-3.814l0.706,0.153c2.693,0.593,4.396,3.257,3.803,5.952c-0.593,2.693-3.257,4.396-5.951,3.805       l-0.688-0.152C208.042,141.722,206.854,140.766,206.189,139.522z M227.357,144.791c-0.588-1.097-0.77-2.412-0.407-3.703       c0.744-2.656,3.5-4.208,6.154-3.464l0.697,0.195c2.657,0.748,4.201,3.508,3.453,6.162c-0.75,2.655-3.507,4.2-6.163,3.452       l-0.677-0.191C229.052,146.861,227.979,145.948,227.357,144.791z M248.186,151.279c-0.633-1.182-0.791-2.613-0.323-3.982       c0.897-2.609,3.737-3.997,6.348-3.102l0.692,0.238c2.605,0.908,3.982,3.756,3.074,6.359c-0.906,2.605-3.752,3.982-6.356,3.076       l-0.655-0.226C249.724,153.217,248.76,152.352,248.186,151.279z M268.601,158.964c-0.68-1.269-0.808-2.819-0.22-4.255       c1.047-2.553,3.963-3.774,6.516-2.728l0.679,0.279c2.545,1.058,3.756,3.979,2.7,6.526c-1.059,2.549-3.98,3.757-6.527,2.699       l-0.641-0.263C269.99,160.766,269.13,159.949,268.601,158.964z M288.537,167.816c-0.729-1.357-0.82-3.03-0.103-4.525       c1.193-2.484,4.179-3.533,6.665-2.339l0.648,0.312c2.487,1.199,3.526,4.185,2.33,6.668c-1.199,2.484-4.185,3.528-6.669,2.329       l-0.635-0.305C289.783,169.479,289.02,168.718,288.537,167.816z M307.925,177.803c-0.774-1.442-0.823-3.236,0.028-4.778       c1.334-2.412,4.371-3.288,6.787-1.955l0.638,0.354c2.41,1.342,3.275,4.382,1.934,6.792c-1.34,2.41-4.381,3.277-6.792,1.935       l-0.61-0.338C309.036,179.329,308.363,178.624,307.925,177.803z M326.703,188.896c-0.822-1.532-0.818-3.452,0.176-5.027       c1.472-2.333,4.555-3.032,6.889-1.56l0.607,0.385c2.334,1.477,3.025,4.561,1.551,6.89c-1.475,2.331-4.559,3.026-6.891,1.55       l-0.597-0.375C327.683,190.28,327.097,189.633,326.703,188.896z M344.806,201.052c-0.866-1.62-0.804-3.661,0.335-5.262       c1.602-2.245,4.72-2.768,6.967-1.167l0.6,0.428c2.236,1.612,2.744,4.736,1.132,6.973c-1.613,2.238-4.734,2.744-6.973,1.132       l-0.556-0.398C345.663,202.295,345.159,201.709,344.806,201.052z" fill="#3F456B"/></g></g></g><g><g><path d="M133.082,437.236c-1.105,0-2.184-0.366-3.062-1.048L39.285,365.87c-1.125-0.872-1.825-2.182-1.925-3.602      l-5.406-76.854c-0.194-2.754,1.882-5.145,4.637-5.338c2.768-0.208,5.146,1.882,5.338,4.637l5.25,74.622l87.457,67.778      l97.851-6.896c2.731-0.209,5.145,1.881,5.339,4.636s-1.881,5.146-4.636,5.339l-99.756,7.03      C133.316,437.232,133.199,437.236,133.082,437.236z" fill="#3F456B"/></g></g><g><g><path d="M422.496,416.841c-2.602,0-4.797-2.014-4.982-4.648c-0.194-2.755,1.881-5.146,4.636-5.339l35.149-2.477      l-12.687-180.339c-0.194-2.754,1.882-5.145,4.637-5.338c2.771-0.207,5.146,1.882,5.338,4.637l13.038,185.325      c0.194,2.754-1.882,5.145-4.636,5.338l-40.137,2.828C422.732,416.837,422.614,416.841,422.496,416.841z" fill="#3F456B"/></g></g><g><g><path d="M33.431,240.234c-2.602,0-4.798-2.014-4.982-4.649L17.692,82.7c-0.094-1.322,0.343-2.628,1.212-3.629      c0.87-1.002,2.102-1.616,3.425-1.709l414.923-29.189c2.76-0.213,5.145,1.883,5.338,4.637l3.864,54.928      c0.194,2.754-1.882,5.145-4.637,5.338c-2.758,0.203-5.145-1.882-5.338-4.637l-3.514-49.939L28.019,86.986l10.404,147.897      c0.194,2.754-1.882,5.145-4.637,5.338C33.667,240.23,33.548,240.234,33.431,240.234z" fill="#3F456B"/></g></g><g><g><path d="M237.611,387.431c-0.739,0-1.489-0.164-2.198-0.512L21.126,281.818      c-6.667-3.271-9.206-11.816-5.661-19.052l38.596-78.691c3.585-7.307,11.927-10.59,18.595-7.32L290.36,283.53      c2.479,1.216,3.503,4.212,2.287,6.691s-4.21,3.504-6.691,2.287L68.251,185.733c-1.685-0.827-4.075,0.428-5.212,2.746      l-38.595,78.689c-1.119,2.283-0.633,4.828,1.086,5.671L239.817,377.94c2.479,1.216,3.503,4.212,2.287,6.691      C241.236,386.402,239.459,387.431,237.611,387.431z" fill="#3F456B"/></g></g><g><g><path d="M393.226,462.884c-1.88,0-3.764-0.41-5.531-1.277l-79.264-38.875c-2.479-1.216-3.503-4.212-2.287-6.691      c1.216-2.479,4.211-3.504,6.691-2.287l79.262,38.875c1.714,0.845,4.026-0.33,5.146-2.613l38.596-78.695      c0.609-1.24,0.779-2.628,0.467-3.806c-0.175-0.663-0.575-1.547-1.484-1.992l-61.332-30.081      c-2.479-1.216-3.503-4.212-2.287-6.691c1.215-2.479,4.211-3.504,6.691-2.287l61.329,30.08c3.302,1.617,5.764,4.685,6.751,8.413      c0.933,3.523,0.521,7.348-1.156,10.769l-38.596,78.694C403.615,459.732,398.436,462.884,393.226,462.884z" fill="#3F456B"/></g></g><g><g><path d="M233.662,424.418l-2.838,33.272l29.143-15.077C259.967,442.613,252.774,429.799,233.662,424.418" fill="#3F456B"/></g></g><g><g><path d="M231.762,463.339c-0.973,0-1.941-0.283-2.778-0.843c-1.515-1.013-2.358-2.768-2.203-4.582l8.227-96.421      c0.073-0.869,0.373-1.703,0.869-2.42l175.351-253.492c3.631-5.25,9.613-8.385,16.005-8.385c3.962,0,7.783,1.195,11.05,3.456      l52.469,36.294c4.271,2.955,7.137,7.397,8.068,12.507c0.931,5.11-0.184,10.277-3.14,14.549L320.331,417.493      c-0.466,0.672-1.089,1.221-1.815,1.597l-84.457,43.69C233.336,463.153,232.548,463.339,231.762,463.339z M244.857,363.668      l-7.344,86.065l75.302-38.954l174.64-252.467c1.436-2.074,1.978-4.584,1.525-7.066c-0.453-2.482-1.845-4.64-3.92-6.075      l-52.469-36.295c-1.588-1.099-3.441-1.68-5.36-1.68c-3.108,0-6.017,1.523-7.78,4.073L244.857,363.668z" fill="#3F456B"/></g></g><g><g><rect fill="#3F456B" height="10.001" transform="matrix(0.8224 0.5689 -0.5689 0.8224 167.0912 -221.0494)" width="93.388" x="390.902" y="152.101"/></g></g><g><g><rect fill="#3F456B" height="10.001" transform="matrix(0.8224 0.5689 -0.5689 0.8224 177.3112 -207.9516)" width="93.387" x="375.044" y="175.028"/></g></g><g><g><path d="M135.952,437.033c-2.622,0-4.823-2.042-4.985-4.695l-4.632-75.755L42.961,366.88      c-2.74,0.35-5.237-1.608-5.575-4.349c-0.339-2.741,1.608-5.237,4.349-5.575l88.653-10.949c1.379-0.17,2.748,0.235,3.81,1.116      c1.061,0.882,1.71,2.163,1.794,3.541l4.956,81.064c0.169,2.756-1.929,5.127-4.686,5.295      C136.158,437.03,136.055,437.033,135.952,437.033z" fill="#3F456B"/></g></g><g><g><g><path d="M77.767,146.641c-1.279,0-2.56-0.488-3.535-1.465c-1.953-1.952-1.953-5.118,0-7.07l25.032-25.032       c1.951-1.953,5.119-1.953,7.07,0c1.953,1.952,1.953,5.118,0,7.07l-25.032,25.032C80.326,146.152,79.046,146.641,77.767,146.641       z" fill="#3F456B"/></g></g><g><g><path d="M100.822,145.981c-1.279,0-2.56-0.488-3.535-1.465l-23.714-23.713c-1.953-1.952-1.953-5.118,0-7.07       c1.951-1.953,5.119-1.953,7.07,0l23.714,23.713c1.953,1.952,1.953,5.118,0,7.07       C103.382,145.493,102.102,145.981,100.822,145.981z" fill="#3F456B"/></g></g></g></g></g></svg>